<svg width="100" height="100" viewBox="0 0 100 100" fill="none" xmlns="http://www.w3.org/2000/svg">
<path d="M41.8355 11.242C41.1429 9.10986 40.5597 7.29069 41.6641 5.14391C41.7529 4.97382 41.8497 4.8085 41.9546 4.64793C42.0596 4.48736 42.1722 4.33233 42.2924 4.18282C42.4126 4.03331 42.5399 3.89006 42.6741 3.75305C42.8085 3.61604 42.9492 3.48595 43.0962 3.36276C43.2432 3.23958 43.396 3.1239 43.5544 3.01572C43.7128 2.90755 43.8762 2.8074 44.0444 2.71527C44.2127 2.62314 44.3851 2.53948 44.5616 2.46429C44.7381 2.3891 44.9178 2.32273 45.1008 2.2652C46.5438 1.80531 48.1585 1.8804 49.5132 2.57981C50.828 3.2586 51.759 4.42313 52.1988 5.82941C52.823 7.82523 52.3205 9.91495 52.1132 11.9438L51.9462 11.3259C51.2112 11.1646 48.5801 13.4797 47.2833 13.6352C45.0124 13.9073 43.4976 12.5505 41.8355 11.242Z" fill="#737272"/>
<path d="M28.1464 9.88795C27.9359 11.9417 27.4302 13.92 25.7338 15.291C23.6342 16.988 21.8843 16.5608 19.4498 16.8089C17.9119 15.6735 16.3845 14.3215 15.6977 12.4846C15.1424 10.9996 15.2512 9.39424 15.9123 7.96384C16.0037 7.76889 16.1043 7.57883 16.2142 7.39367C16.3241 7.20851 16.4428 7.02912 16.5701 6.8555C16.6974 6.68187 16.8329 6.51484 16.9764 6.3544C17.12 6.19395 17.271 6.04086 17.4295 5.89511C17.588 5.74936 17.7532 5.61164 17.9251 5.48196C18.097 5.35227 18.2747 5.23124 18.4584 5.11885C18.6421 5.00646 18.8307 4.90324 19.0244 4.80921C19.2181 4.71518 19.4159 4.63076 19.6178 4.55597C19.8056 4.48669 19.9964 4.42693 20.1901 4.37669C20.3838 4.32644 20.5796 4.28597 20.7773 4.25526C20.9751 4.22455 21.1739 4.20377 21.3738 4.1929C21.5737 4.18203 21.7736 4.18114 21.9735 4.19022C22.1734 4.19931 22.3724 4.21832 22.5705 4.24726C22.7685 4.2762 22.9646 4.31493 23.1588 4.36344C23.353 4.41195 23.5443 4.47001 23.7326 4.53761C23.921 4.60521 24.1056 4.68202 24.2863 4.76804C26.3729 5.77163 27.4298 7.7994 28.1464 9.88795Z" fill="#737272"/>
<path d="M67.3535 14.1833C68.2429 12.1553 69.3338 10.0974 71.5214 9.23429C72.8653 8.70404 74.4139 8.81189 75.7197 9.40165C75.9089 9.4885 76.0933 9.58435 76.2731 9.68921C76.4529 9.79407 76.6271 9.90744 76.7958 10.0293C76.9645 10.1512 77.1269 10.281 77.2829 10.4187C77.4389 10.5564 77.5879 10.7014 77.7297 10.8537C77.8716 11.006 78.0057 11.1649 78.132 11.3302C78.2584 11.4956 78.3764 11.6667 78.486 11.8436C78.5957 12.0205 78.6964 12.2024 78.7883 12.3891C78.8802 12.5758 78.9628 12.7666 79.036 12.9614C79.515 14.264 79.5297 15.7958 78.9337 17.0659C78.2447 18.5341 76.8558 19.6079 75.5077 20.4468C75.4421 20.4569 75.3763 20.4666 75.3106 20.4761C73.3686 20.7541 71.4786 20.5341 69.8735 19.3074C68.1675 18.0035 67.6329 16.2118 67.3535 14.1833Z" fill="#737272"/>
<path d="M19.4502 16.8089C21.8847 16.5608 23.6346 16.988 25.7342 15.291C27.4306 13.92 27.9363 11.9417 28.1468 9.88794C29.8922 12.8091 40.2584 31.3578 39.8573 33.2072C39.437 33.8112 39.2859 33.9327 38.6137 34.2326C37.9121 34.1699 37.6165 34.1026 37.0372 33.6575C34.5758 31.7662 32.2941 29.0207 30.0311 26.8585C26.5531 23.5352 22.6887 20.356 19.4502 16.8089Z" fill="#9BC638"/>
<path d="M41.835 11.242C43.4971 12.5505 45.0119 13.9073 47.2828 13.6352C48.5796 13.4797 51.2107 11.1646 51.9457 11.3259L52.1127 11.9438C51.865 16.1523 51.1818 26.5185 49.9601 30.2249C49.6921 31.0379 49.3409 31.23 48.6223 31.5902C48.1013 31.6153 47.6486 31.608 47.2089 31.2943C45.4249 30.0218 42.3853 14.3173 41.835 11.242Z" fill="#9BC638"/>
<path d="M59.7184 34.6693C59.0221 34.2255 58.1188 33.6639 57.8834 32.8369C57.4502 31.3154 65.835 16.9577 67.3535 14.1833C67.6329 16.2118 68.1675 18.0035 69.8735 19.3074C71.4786 20.5341 73.3686 20.7541 75.3106 20.4761C75.3763 20.4666 75.442 20.4569 75.5077 20.4468C74.1299 21.4896 72.8555 22.9625 71.6051 24.1704C67.8385 27.8092 64.0713 31.7393 59.7184 34.6693Z" fill="#9BC638"/>
<path d="M13.8624 40.4434C12.0983 40.2645 10.4578 39.965 9.02704 38.832C8.88529 38.721 8.74948 38.6032 8.61961 38.4785C8.48973 38.3538 8.36645 38.2229 8.24976 38.0858C8.13306 37.9487 8.02355 37.8061 7.92122 37.658C7.81889 37.5099 7.72426 37.357 7.63733 37.1994C7.5504 37.0417 7.47161 36.8801 7.40096 36.7145C7.3303 36.5489 7.26815 36.3802 7.21449 36.2083C7.16083 36.0365 7.11593 35.8624 7.07981 35.686C7.04368 35.5097 7.01651 35.3319 6.99829 35.1528C6.9771 34.9513 6.96598 34.7493 6.96493 34.5468C6.96387 34.3442 6.97289 34.1421 6.99199 33.9404C7.01107 33.7387 7.04014 33.5385 7.0792 33.3398C7.11824 33.141 7.16707 32.9447 7.22569 32.7508C7.28431 32.5569 7.35242 32.3664 7.43002 32.1793C7.50762 31.9922 7.59434 31.8094 7.69016 31.6309C7.78598 31.4524 7.89044 31.2792 8.00354 31.1111C8.11663 30.9431 8.2378 30.7811 8.36704 30.6251C9.31117 29.4667 10.6796 28.6858 12.1754 28.5506C14.4731 28.3428 16.1655 29.6784 17.8208 31.0526C18.5103 32.9095 18.9061 34.7991 18.0523 36.7034C17.1661 38.6802 15.6478 39.4832 13.8624 40.4434Z" fill="#737272"/>
<path d="M81.6178 32.0727C83.128 31.166 84.6151 30.4685 86.3344 30.0529C88.5511 30.6504 90.2978 31.3326 91.5092 33.4509C91.6006 33.6108 91.6839 33.7748 91.7591 33.9429C91.8342 34.111 91.9008 34.2825 91.9589 34.4572C92.0171 34.6319 92.0664 34.8091 92.107 34.9888C92.1474 35.1684 92.1789 35.3496 92.2014 35.5324C92.224 35.7152 92.2374 35.8986 92.2416 36.0827C92.246 36.2668 92.2412 36.4507 92.2272 36.6343C92.2132 36.818 92.1902 37.0005 92.1581 37.1818C92.126 37.3631 92.085 37.5424 92.0351 37.7197C91.6173 39.1707 90.5842 40.3281 89.2693 41.0439C87.8519 41.8155 86.1321 41.9611 84.5392 41.9348C82.9707 40.7106 81.4069 39.5914 80.7348 37.6088C80.0643 35.631 80.7563 33.8406 81.6178 32.0727Z" fill="#737272"/>
<path d="M17.8207 31.0526C20.9018 32.6417 32.4487 39.4931 33.3454 42.1831C33.5564 42.8161 33.3845 43.1471 33.0998 43.6983C31.9559 44.5364 30.6664 44.5628 29.3093 44.3497C26.2202 43.8647 23.0796 42.8415 20.0466 42.0607C18.0211 41.5393 15.8131 41.1812 13.8623 40.4434C15.6477 39.4832 17.166 38.6802 18.0522 36.7034C18.906 34.7991 18.5102 32.9095 17.8207 31.0526Z" fill="#9BC638"/>
<path d="M84.5396 41.9348C79.7946 42.3143 71.0757 44.2836 66.8125 43.9276C65.8301 43.8456 65.3163 43.256 64.7156 42.54C64.586 41.9994 64.5052 41.7429 64.7246 41.2041C65.8144 38.5283 78.5348 33.3422 81.6182 32.0727C80.7567 33.8406 80.0646 35.631 80.7351 37.6088C81.4072 39.5914 82.9711 40.7106 84.5396 41.9348Z" fill="#9BC638"/>
<path d="M10.2705 52.0458C13.9366 51.9368 30.4685 49.9582 32.5155 51.8985C32.6343 52.0112 32.7353 52.138 32.8267 52.2736C32.7998 52.8754 32.5295 53.2124 32.0845 53.6229C30.1272 55.4281 15.059 61.4948 12.2807 62.2017C12.3186 62.1488 12.3562 62.0956 12.3935 62.0423C13.4799 60.4853 14.0784 58.7952 13.7211 56.8833C13.3739 55.0253 11.81 53.106 10.2705 52.0458Z" fill="#9BC638"/>
<path d="M12.281 62.2017C11.0455 63.0127 9.5281 63.7151 8.03097 63.7011C6.45865 63.6864 5.05972 63.0522 3.96413 61.9344C3.82501 61.7952 3.69317 61.6494 3.56861 61.497C3.44404 61.3446 3.32737 61.1864 3.21859 61.0224C3.1098 60.8583 3.00945 60.6893 2.91753 60.5153C2.82561 60.3412 2.74257 60.163 2.66842 59.9807C2.59428 59.7984 2.5294 59.6129 2.47377 59.4241C2.41813 59.2353 2.37203 59.0442 2.33547 58.8508C2.2989 58.6574 2.27205 58.4627 2.25491 58.2666C2.23777 58.0705 2.23043 57.8741 2.23289 57.6773C2.23525 57.4959 2.24659 57.315 2.26689 57.1347C2.28719 56.9544 2.31636 56.7756 2.3544 56.5982C2.39244 56.4208 2.43916 56.2457 2.49456 56.0729C2.54996 55.9001 2.61377 55.7305 2.68599 55.5641C2.75821 55.3976 2.83849 55.2351 2.92683 55.0767C3.01516 54.9182 3.11112 54.7645 3.2147 54.6155C3.31828 54.4666 3.42897 54.3231 3.54677 54.1851C3.66458 54.0471 3.78893 53.9153 3.91981 53.7896C5.73483 52.0565 7.92752 51.98 10.2708 52.0458C11.8103 53.106 13.3742 55.0253 13.7214 56.8833C14.0787 58.7952 13.4802 60.4853 12.3938 62.0423C12.3565 62.0956 12.3189 62.1487 12.281 62.2017Z" fill="#737272"/>
<path d="M83.8397 67.2116C81.1015 66.027 66.506 57.3763 65.2924 55.3857C64.9479 54.8206 64.9315 54.4451 65.0886 53.825C65.2695 53.6553 65.4687 53.4748 65.6909 53.3617C67.564 52.4083 85.0824 56.5629 88.0266 57.4594C86.0924 58.2728 84.2449 59.0927 83.3873 61.1799C82.6288 63.0259 83.0227 65.291 83.7831 67.0805L83.8397 67.2116Z" fill="#9BC638"/>
<path d="M88.0274 57.4594C90.1083 57.7494 91.8974 58.1935 93.2374 59.972C94.0593 61.0628 94.3784 62.4265 94.6925 63.736C94.1488 65.728 93.5238 67.5133 91.6081 68.6062C90.2121 69.4026 88.5925 69.3841 87.0798 68.9609C85.895 68.6295 84.8564 67.8819 83.8405 67.2116L83.7839 67.0805C83.0235 65.291 82.6296 63.0259 83.3881 61.1799C84.2457 59.0927 86.0932 58.2728 88.0274 57.4594Z" fill="#737272"/>
<path d="M23.8281 73.7259C25.5283 71.4371 35.2276 61.3732 37.6591 60.8086C38.3315 60.8401 38.789 60.9786 39.2556 61.4849C39.6324 61.8938 39.9709 62.3485 40.3064 62.7915C38.7614 68.1147 34.8753 74.6444 32.2114 79.5765L32.197 79.4876C31.8793 77.5361 31.0865 75.748 29.4268 74.5739C27.7349 73.3769 25.7738 73.3846 23.8281 73.7259Z" fill="#9BC638"/>
<path d="M71.9292 73.066C70.1682 72.5296 68.6173 72.384 66.907 73.2875C65.4414 74.0618 64.1912 75.713 63.7174 77.2896C63.5782 77.7631 63.4533 78.2403 63.3429 78.7212C61.2345 73.5948 58.8721 68.5658 56.9346 63.37C57.4565 62.6272 58.0134 61.7075 58.771 61.1904C59.1501 60.9316 59.7854 60.7324 60.2418 60.8263C62.5454 61.3001 70.4253 70.8434 71.9292 73.066Z" fill="#9BC638"/>
<path d="M42.3652 89.2333C42.7886 85.2601 43.8574 81.2351 44.6647 77.3121C45.29 74.2737 45.7101 71.0508 46.6414 68.0969C46.9558 67.0995 47.4404 65.6176 48.277 64.9603C48.4365 64.835 48.6136 64.7383 48.8005 64.66C49.4662 64.8048 49.64 64.9253 50.0171 65.4984C50.5554 66.3165 50.867 67.4791 51.0577 68.4339C51.7773 72.037 51.9199 75.826 52.3613 79.4784C52.7448 82.6513 53.6366 86.0325 53.4975 89.2384C51.8444 88.0208 50.3752 86.9466 48.2428 86.805C46.0088 86.6565 44.3655 87.8705 42.7891 89.2648L42.3652 89.2333Z" fill="#9BC638"/>
<path d="M63.3428 78.7212C63.4532 78.2403 63.5781 77.7631 63.7173 77.2896C64.1911 75.713 65.4413 74.0618 66.9069 73.2875C68.6172 72.384 70.1681 72.5296 71.9291 73.066C73.5039 74.3008 74.9469 75.883 75.1903 77.9559C75.3609 79.4099 74.8918 80.8189 73.9895 81.9579C72.7367 83.5393 71.1719 84.179 69.2851 84.6649C67.1719 84.05 65.602 83.4594 64.4659 81.4081C64.0011 80.5688 63.6791 79.6185 63.3428 78.7212Z" fill="#737272"/>
<path d="M32.2117 79.5765C31.8555 81.0856 31.1097 82.6717 29.9123 83.6908C28.7397 84.6888 27.1507 85.1347 25.6289 85.0085C25.427 84.9911 25.2265 84.9638 25.0274 84.9265C24.8283 84.8892 24.6315 84.8421 24.437 84.7854C24.2425 84.7287 24.0512 84.6625 23.8633 84.5868C23.6754 84.5111 23.4916 84.4263 23.3121 84.3324C23.1326 84.2385 22.9581 84.136 22.7887 84.0249C22.6193 83.9138 22.4558 83.7946 22.2981 83.6673C22.1405 83.54 21.9896 83.4052 21.8454 83.2629C21.7011 83.1206 21.5642 82.9716 21.4347 82.8158C20.5597 81.7591 20.0784 80.3989 20.2169 79.0239C20.4577 76.6332 22.0919 75.1473 23.8284 73.7259C25.7741 73.3846 27.7352 73.3769 29.4271 74.5739C31.0868 75.748 31.8796 77.5361 32.1973 79.4876L32.2117 79.5765Z" fill="#737272"/>
<path d="M53.4976 89.2384C53.9632 90.8164 54.4469 92.3756 54.1787 94.0405C53.908 95.7212 53.0217 97.1923 51.6342 98.1873C51.4689 98.3064 51.2982 98.4172 51.1221 98.5196C50.9459 98.6219 50.7652 98.7154 50.5799 98.8C50.3945 98.8846 50.2055 98.9599 50.0128 99.026C49.82 99.092 49.6245 99.1484 49.4263 99.1952C49.228 99.242 49.0279 99.279 48.8261 99.3061C48.6241 99.3333 48.4214 99.3505 48.2178 99.3577C48.0142 99.3649 47.8107 99.3621 47.6074 99.3493C47.404 99.3366 47.2018 99.3139 47.0008 99.2812C46.7992 99.2455 46.5998 99.1999 46.4027 99.1445C46.2056 99.089 46.0117 99.024 45.8211 98.9494C45.6304 98.8749 45.4439 98.7911 45.2615 98.698C45.0791 98.605 44.9017 98.5032 44.7294 98.3927C44.557 98.2822 44.3905 98.1634 44.2299 98.0364C44.0693 97.9094 43.9153 97.7748 43.768 97.6327C43.6207 97.4905 43.4808 97.3414 43.3482 97.1853C43.2156 97.0293 43.091 96.8671 42.9745 96.6988C41.3148 94.2923 41.8615 91.8711 42.3653 89.2333L42.7892 89.2648C44.3656 87.8705 46.0089 86.6565 48.2429 86.805C50.3753 86.9466 51.8445 88.0208 53.4976 89.2384Z" fill="#737272"/>
</svg>
