<svg width="1024" height="1024" viewBox="0 0 1024 1024" fill="none" xmlns="http://www.w3.org/2000/svg">
<g clip-path="url(#clip0_3010_11)">
<path d="M911.845 821.86C909.695 820.41 906.51 819.745 904.06 818.81C887.605 812.505 870.6 806.81 853.115 804.24C866.475 828.145 879.845 851.55 888.07 877.84C889.425 882.165 890.67 889.805 893.25 893.3L886.975 895.865C882.34 885.035 878.875 873.685 874.47 862.745C866.09 841.935 854.245 819.91 841.51 801.505C808.19 812.2 749.76 857.095 726.095 882.6C724.085 884.77 721.54 886.64 719.885 889.085C704.775 907.185 692.18 925.54 680.33 945.895C678.24 949.485 674.835 953.93 673.745 957.9L674.06 958.385L677.115 958.415L678.105 958.935C673.46 960.02 668.765 961.005 664.155 962.225C666.98 951.35 671.945 941.47 677.31 931.67C683.555 920.27 690.405 909.015 698.435 898.77C702.865 893.115 707.955 887.915 712.885 882.7C739.369 854.762 769.551 830.578 802.59 810.82C813.14 804.625 824.235 799.235 834.7 792.935C810.445 754.655 777.62 722.65 744.445 692.19C724.125 705.98 703.55 719.495 683.785 734.08C665.41 747.635 647.855 762.095 629.995 776.295L556.375 835.025C523.875 861.44 489.282 886.58 461.671 918.33C460.58 925.445 458.68 932.4 457.274 939.455C455.531 948.2 454.483 957.01 453.715 965.885C453.328 970.355 452.805 975.045 453.14 979.52C452.109 980.09 451.498 979.925 450.384 980.07C450.01 980.12 449.565 980.275 449.199 980.395C415.093 981.375 381.113 980.125 347.026 979.475L347.564 978.425C346.42 970.025 346.498 961.16 346.23 952.675C345.43 920.951 348.059 889.234 354.072 858.075C356.689 844.38 360.237 830.825 363.075 817.165C356.036 823.015 349.624 829.935 343.192 836.45C312.346 867.71 291.475 894.345 270.955 933.28C264.822 944.915 258.635 957.29 254.904 969.935C256.757 970.06 258.607 970.275 260.454 970.455L262.181 972.13C254.623 971.7 246.97 970.54 239.438 969.695C259.032 914.985 287.933 871.475 328.811 830.325C333.295 825.815 361.228 801.355 362.015 799.675C362.973 797.63 361.997 796.355 360.898 794.64C357.42 789.22 352.435 784.315 348.197 779.465C340.264 770.39 325.804 752.725 321.71 741.765C321.636 741.57 321.567 741.365 321.495 741.165C317.818 742.615 314.356 744.785 310.888 746.69C301.97 751.59 293.025 755.39 282.73 755.805C267.787 756.4 253.621 750.94 242.694 740.71C218.739 718.28 235.632 702.565 228.325 678.6C223.786 663.715 214.067 669.6 213.399 646.16C209.528 645.935 204.924 644.775 201.721 642.57C197.14 639.415 195.882 634.345 194.874 629.215C194.079 629.015 193.282 628.81 192.5 628.56C190.237 627.84 188.085 626.315 187.033 624.13C185.122 620.16 187.202 615.19 188.415 611.315C181.255 606.01 172.529 606.615 164.103 605.29C153.426 603.62 141.375 599.235 134.904 590.025C132.318 586.35 130.517 580.93 131.809 576.45C133.668 570.005 140.257 563.125 143.763 557.32C157.641 534.335 164.24 515.28 168.585 488.827C162.952 479.121 153.604 471.462 146.272 462.911C136.712 473.371 133.454 487.353 132.883 501.12C129.875 497.959 126.814 494.818 123.935 491.536C110.241 475.92 104.707 456.374 105.966 435.93C95.7679 435.991 85.5584 437.834 75.3554 438.323C64.3234 438.853 53.4039 437.938 42.3968 437.373C45.9616 432.475 49.5859 427.644 53.5929 423.094C57.6544 418.483 62.3304 413.971 65.7534 408.889C64.9814 402.24 63.6859 395.679 63.0989 389C61.049 367.505 63.7833 345.823 71.1054 325.51C73.5499 318.87 77.5134 312.958 79.9284 306.371C79.9934 306.194 80.0544 306.015 80.1174 305.837C59.1179 307.857 43.3823 304.882 24.6709 294.519C49.0096 287.419 71.9164 274.23 92.3914 259.439C96.8979 256.184 102.493 252.643 105.702 248.041C109.093 243.18 110.882 236.497 113.719 231.169C126.987 206.254 135.667 197.137 158.856 180.844C161.46 174.278 165.791 169.914 171.028 165.329C187.146 151.22 203.962 137.716 222.297 126.568C232.495 120.367 243.098 115.218 253.456 109.383C259.386 106.043 265.065 102.216 270.926 98.7487C279.417 93.7717 288.094 89.1186 296.937 84.7992C350.533 58.5842 422.107 38.1413 482.232 42.2666C580.855 49.0332 673.565 103.369 754.495 156.34C774.79 169.626 804.685 187.882 820.34 205.926C825.301 211.631 828.774 218.474 830.45 225.846C832.09 233.249 831.705 241.011 830.99 248.503C827.935 280.449 813.845 310.06 799.37 338.225C793.505 349.631 780.105 372.038 779.43 384.225C777.81 413.435 825.7 458.059 844.1 479.23C862.815 500.765 877.315 527.38 875.21 556.74C873.075 586.545 854.285 610.755 832.485 629.7C844.44 638.685 855.775 649.27 866.835 659.34C916.12 704.225 961.5 755.795 991.28 815.865C995.92 825.22 1001.21 835.755 1004.16 845.765C999.065 848.24 994.3 851.375 989.215 853.9C982.055 857.455 974.485 860.31 967.075 863.305L967.65 861.5C972.115 860.855 977.43 857.695 981.58 855.845C958.905 843.225 936.295 830.815 911.845 821.86ZM288.149 120.506C330.864 97.7027 410.854 70.8382 459.101 68.8917C453.857 71.1622 444.347 71.4162 438.433 72.2612C430.632 73.3762 422.786 74.6132 415.093 76.3402C399.745 79.7857 384.66 84.3322 369.66 89.0447C342.178 97.6792 315.085 107.469 289.519 120.891C361.011 144.11 421.026 190.381 467.005 249.278C480.297 266.304 493.1 284.767 502.915 304.047C504.74 307.678 506.542 311.321 508.32 314.975C537.989 323.535 563.093 343.437 578.195 370.371C592.624 396.548 596.086 427.379 587.82 456.104C580.27 481.728 562.37 506.34 538.48 519.025C536.485 520.08 534.405 520.88 532.285 521.64C543.635 562.295 545.45 604.2 543.31 646.155C542.18 668.315 539.78 691.78 533.55 713.145C536.795 709.05 539.02 703.315 541.33 698.61C545.65 689.893 549.865 681.124 553.975 672.305C560.155 658.98 566.625 645.775 572.56 632.335C580.151 614.798 587.305 597.074 594.015 579.18C606.02 547.65 616.975 515.885 624.56 482.977C626.3 475.407 628.435 467.768 629.735 460.12C630.12 469.329 630.675 478.584 630.5 487.802C629.73 528.58 620.75 569.025 607.37 607.43C603.365 618.93 598.355 630.075 593.35 641.16C583.3 663.43 572.41 684.8 560.765 706.265C558.965 709.585 544.7 735.6 544.745 736.57C545.01 736.155 545.26 735.47 545.74 735.33C552.15 727.085 559.38 719.505 566.265 711.665C577.59 698.78 588.565 685.615 598.38 671.53C643.717 605.611 668.008 527.498 668.05 447.493C667.99 437.872 668.035 427.859 667.025 418.296C694.145 475.198 681.49 563.975 661 621.595C656.585 634.01 651.18 646.945 644.32 658.215C652.885 651.825 661.72 645.77 670.135 639.185C690.6 623.17 710.045 604.31 725.275 583.21C734.555 570.194 742.959 556.573 750.43 542.44C753.355 536.79 766.035 505.72 769.19 503.865L770.055 504.03C770.36 508.855 770.005 513.465 769.305 518.245C768.76 521.945 767.2 527.055 767.67 530.705L767.605 530.72L767.53 529.945L768.095 529.735C768.676 527.56 769.239 525.38 769.785 523.195C769.71 525.49 769.03 529.875 770.135 531.74C771.4 531.875 771.545 531.86 772.68 531.29C774.63 525.23 772.58 510.27 771.22 503.97C770 496.517 768.385 488.901 767.505 481.415C778.82 493.585 786.14 524.28 785.51 541.03C784.195 576.01 759.515 613.26 734.165 636.45C712.675 656.11 688.225 673.29 661.485 685.06C650.555 689.87 633.76 695.205 624.095 701.165C616.555 705.82 609.385 711.345 602.055 716.345C575.935 734.16 550.92 752.55 527.54 773.91C520.795 780.07 514.745 787.005 508.17 793.355C492.065 808.895 478.111 822.505 463.554 839.69C459.459 844.53 455.165 849.335 451.496 854.505C447.225 860.52 443.582 867.16 439.683 873.44C432.062 885.71 425.393 897.755 420.616 911.45C417.749 919.67 414.638 929.53 414.228 938.25C414.196 938.93 414.214 939.585 414.246 940.27C421.827 925.23 430.347 908.905 439.54 894.84C441.241 892.235 448.489 885.645 448.732 883.47C459.301 872.835 467.921 861.42 479.414 850.975C487.261 843.84 495.676 837.305 503.935 830.66C521.781 816.143 540.084 802.196 558.815 788.84C602.256 756.997 646.858 726.768 692.53 698.215C732.045 673.555 774.51 652.36 810.725 622.745C831.65 605.635 855.74 584.135 858.425 555.505C859.6 542.985 856.345 530.69 850.665 519.6C842.96 504.55 831.565 491.598 820.745 478.755L790.26 442.571C778.89 428.887 768.725 414.28 757.485 400.543C767.89 421.439 784.93 446.09 799.22 464.882C807.9 476.295 817.18 487.172 824.815 499.349C824.71 499.328 824.605 499.319 824.51 499.285C822.845 498.699 810.74 481.235 808.545 478.499C794.205 460.602 778.65 443.581 765.535 424.745C739.19 386.917 720.655 344.275 701.595 302.512L702.525 302.441C706.195 306.024 709.315 309.685 712.34 313.824C721.75 326.72 729.96 340.358 739.655 353.087C742.015 356.181 744.445 360.027 747.205 362.724C748.04 363.542 748.885 363.839 750 364.074C750.16 363.972 750.31 363.865 750.47 363.769C751.155 363.353 750.87 363.468 751.69 363.418L752.05 363.824C751.97 364.331 751.61 365.556 751.705 366.001C752.27 368.697 756.615 375.405 758.02 378.266C760.51 354.423 778.815 330.083 790.37 309.402C800.19 291.822 809.155 272.008 812.65 252.121C814.405 242.122 815.385 230.289 809.215 221.594C798.66 206.724 775.845 192.027 760.65 181.909C702.235 143.01 637.445 107.156 571.995 81.7782C552.745 74.3127 532.2 68.2092 511.82 64.7292C502.71 63.1732 493.531 61.5557 484.303 60.8572C429.838 56.7322 375.167 70.6132 324.769 90.1722C307.316 96.9457 286.433 105.567 271.128 116.416C276.949 117.315 282.492 118.907 288.149 120.506ZM499.316 320.377C498.913 316.899 490.705 303.826 488.628 300.35C478.533 283.458 467.852 266.558 455.365 251.318C413.537 200.265 342.642 146.242 277.778 129.996C269.019 127.802 255.708 124.598 246.796 127.134C241.592 128.614 236.599 131.697 231.989 134.462C225.074 138.61 183.973 164.85 182.621 170.254L183 170.698C181.415 171.223 180.145 171.755 178.741 172.664L178.404 173.376C181.836 174.13 186.48 172.981 190.042 172.792C192.846 172.643 195.666 172.82 198.47 172.91C211.591 173.33 224.512 175.435 237.342 178.131C328.884 197.365 400.741 255.56 450.462 333.289C453.229 337.646 455.961 342.025 458.658 346.426C458.859 348.118 469.566 368.36 471.191 371.83C484.357 360.898 498.434 356.296 515.455 355.797C513.99 349.296 503.55 324.662 499.316 320.377ZM218.478 252.487C199.691 242.303 165.502 224.225 144.254 231.088C134.686 234.178 125.647 243.575 117.773 249.739C101.605 262.395 85.5074 274.065 67.3079 283.676C62.4219 286.256 57.2904 289.123 52.0184 290.786C49.046 291.468 46.0665 293.025 43.2638 294.237C49.6525 296.877 57.2539 297.859 64.1359 297.873C88.9759 297.927 123.135 272.693 140.421 255.553L141.243 255.873C134.074 266.05 125.198 274.469 116.589 283.37C85.1034 315.921 64.3204 341.303 72.2564 389.92C72.3774 390.661 72.5314 391.378 72.6964 392.11C72.7744 392.874 72.9559 393.523 73.1619 394.26C75.9129 392.949 87.0119 359.442 89.3379 353.967C90.6689 350.832 92.2799 347.692 94.2074 344.882L95.1594 344.605C96.0559 342.799 96.8699 340.766 98.1709 339.218L98.5519 339.51C98.2379 340.362 97.9349 341.142 97.5379 341.96C96.8204 343.437 95.8434 346.583 96.2049 348.131C90.8079 367.27 83.5469 385.994 78.3369 405.192C101.971 377.895 120.399 353.949 135.609 321.073C140.561 310.371 144.648 299.295 149.508 288.544C151.21 284.779 152.765 280.644 155.029 277.182C153.714 281.391 152.99 285.746 151.693 289.957L150.799 289.888C148.748 295.095 148.267 301.122 146.674 306.519C143.801 316.256 139.873 325.604 137.097 335.398L135.801 335.251L136.786 336.765L136.595 335.151L137.317 335.54L136.605 335.053L137.606 334.719C138.816 331.79 140.014 328.169 142.218 325.849C142.813 325.794 142.774 325.885 143.226 325.544C146.084 323.381 150.159 315.709 152.209 312.524C157.678 304.031 163.663 295.652 168.77 286.95C172.952 279.824 176.53 272.212 180.122 264.775C182.619 259.604 185.431 254.395 186.637 248.744C187.634 253.151 188.321 257.622 188.692 262.124C188.566 264.263 188.785 266.404 188.503 268.532C187.463 264.135 186.997 260.133 186.948 255.616C186.609 256.822 186.48 258.09 186.291 259.328L185.648 257.808L184.866 257.624L185.501 258.23C185.923 271.423 175.608 301.602 170.548 314.488C182.637 305.699 195.517 295.222 205.018 283.687C212.28 274.869 218.507 264.996 225.148 255.706C225.06 255.558 224.992 255.396 224.885 255.261C223.562 253.602 220.457 252.936 218.478 252.487ZM248.344 269.072L249.12 269.051C248.037 267.518 246.202 266.832 244.796 265.593C243.454 264.41 240.95 263.229 239.222 262.869C232.553 269.969 229.958 289.081 226.828 298.142C226.105 300.237 219.307 314.776 218.129 316.538C216.934 318.326 214.567 321.32 215.076 323.603C215.117 323.784 215.166 323.963 215.211 324.144C213.191 328.551 210.068 332.486 207.365 336.492C192.592 358.391 179.358 370.053 157.407 384.33C184.948 354.597 217.841 318.759 227.5 278.454C228.869 272.743 230.311 266.605 230.167 260.699C230.132 259.275 229.928 258.275 229.271 257.019L228.287 256.642C228.02 256.866 218.469 278.183 216.7 281.315C203.472 304.727 177.61 337.139 155.549 352.597C163.573 343.027 178.766 326.38 183.277 315.392C171.203 325.851 158.906 336.115 147.762 347.583C135.14 360.572 123.792 374.582 110.485 386.968C95.9104 400.534 78.9974 411.112 64.2269 424.361C94.9149 408.447 123.479 391.324 150.234 369.318C161.9 359.723 172.9 349.046 184.022 338.824C168.9 368.903 137.877 408.353 106.925 423.342C105.183 423.617 100.164 426.519 98.1364 427.432L98.2469 427.823C98.7409 428.077 98.8919 428.178 99.3714 428.354C107.164 431.22 142.912 419.842 150.765 416.097C176.324 403.911 206.423 363.628 220.704 339.311C227.372 327.958 233.332 315.12 238.257 302.906C240.493 297.361 242.422 291.822 243.88 286.019C245.246 280.584 246.23 274.834 248.154 269.573C248.215 269.405 248.28 269.239 248.344 269.072ZM290.746 299.538C289.117 297.942 287.492 296.642 285.596 295.376C282.079 309.127 278.239 322.734 272.128 335.599C270.195 339.669 267.856 343.497 265.755 347.476C272.29 353.953 276.441 361.664 280.059 370.065C279.291 367.101 278.611 364.328 278.396 361.264L278.333 360.439C278.321 360.274 278.314 360.108 278.305 359.943L279.294 359.861C280.4 360.909 280.135 361.892 280.765 363.168C283.286 376.288 287.274 390.362 293.531 402.221C282.06 394.484 273.308 386.105 265.196 374.78C261.98 370.29 259.05 365.496 255.661 361.148C240.009 382.217 215.584 403.218 189.244 408.763C195.133 402.366 200.231 396.215 204.407 388.534C197.056 396.206 190.534 403.195 181.411 408.91C173.915 413.606 165.741 417.573 157.69 421.227C155.549 422.199 148.571 424.592 147.17 425.93C146.898 426.19 146.782 426.575 146.587 426.897L147.129 429.411C150.682 443.965 154.834 457.736 165.709 468.561C169.626 472.46 174.596 476.219 177.481 480.971C187.582 497.613 162.4 548.25 152.707 564.225C149.497 569.515 145.657 574.395 142.447 579.65C147.122 587.32 153.37 591.855 162.058 593.97C171.874 596.36 188.102 595.785 194.061 605.265C194.095 605.32 194.123 605.38 194.155 605.435C194.411 607.445 194.808 609.435 194.91 611.455C194.968 612.595 195.236 613.18 195.881 614.14C197.952 615.505 200.383 615.345 202.641 616.215C202.31 612.73 202.425 609.965 203.419 606.56C205.486 605.635 207.453 605.305 209.729 605.42C214.513 605.66 219.372 607.38 224.119 608.145C235.59 609.985 248.504 609.65 259.449 613.795C259.759 613.915 260.065 614.04 260.373 614.16C264.569 614.875 268.936 617.225 272.711 619.115C280.714 623.125 287.771 627.58 294.482 633.56C302.339 640.565 309.485 649.835 319.056 654.5C330.936 660.29 345.443 655.715 357.172 651.725C346.307 649.26 336.029 647.17 325.62 642.965C339.689 643.275 352.77 643.31 365.514 636.575C356.251 633.955 347.003 632.235 337.916 628.9C349.165 630.06 365.832 628.945 375.701 623.08C364.447 622.045 353.351 619.96 342.091 619.07C359.976 615.97 377.732 616.835 391.774 603.43C388.944 602.805 386.062 602.02 383.665 600.35L383.585 599.675C385.282 600.085 388.013 601.03 389.715 600.255C391.407 599.49 392.128 597.3 392.775 595.73L393.037 595.08C394.259 594.83 394.311 595.06 395.11 594.01C394.19 592.25 392.429 592.42 391.68 590.615C393.006 587.93 396.511 586.78 398.346 584.21C398.431 584.09 398.512 583.97 398.595 583.85C399.715 582.515 401.164 581.715 402.619 580.8L403.587 580.275C407.747 572.46 404.98 566.68 403.558 558.725C405.485 558.595 407.265 558.37 409.144 557.91L409.681 557.775L410.753 556.835C410.865 556.175 410.979 555.53 410.978 554.86C410.962 548.1 406.69 541.79 402.11 537.255C404.61 537.91 407.247 538.71 409.833 538.84C411.138 538.91 411.986 538.685 412.99 537.82C414.507 533.905 411.942 527.785 410.342 524.105C407.778 518.215 405.274 517.345 399.46 515.07C403.613 515.157 407.764 515.326 411.91 515.575C407.768 509.52 402.833 504.015 398.757 497.896C389.871 484.56 384.803 469.947 379.843 454.864L379.203 452.583C377.775 454.433 377.036 456.637 375.746 458.575C373.603 461.796 370.715 464.737 368.156 467.644C361.158 475.089 353.774 480.78 343.98 483.983C344.011 473.359 346.733 462.679 347.551 452.067C347.935 450.261 348.551 448.313 348.184 446.481C348.32 446.252 348.468 446.03 348.591 445.794C350.523 442.093 349.764 435.271 348.706 431.361C349.028 430.077 348.91 429.294 348.702 428.016L349.471 427.828C350.801 424.666 350.271 418.817 350.287 415.268C350.369 397.377 349.106 380.305 346.824 362.611C346.423 359.5 343.613 345.334 344.158 343.581L345.904 342.677L346.086 341.983C343.475 338.526 326.644 325.768 322.575 324.156C317.101 319.436 311.482 314.887 305.727 310.513C305.429 310.028 305.602 310.249 305.083 309.762C301.605 306.504 295.705 299.897 290.746 299.538ZM364.518 358.088C362.511 356.336 360.651 354.5 358.791 352.596C361.579 376.212 361.686 399.58 360.292 423.317C359.721 433.054 359.151 443.139 357.35 452.733C355.053 457.732 354.732 464.917 353.731 470.385C359.599 465.972 363.732 460.264 367.517 454.036C371.499 447.485 375.411 440.045 377.232 432.549C378.97 425.392 378.621 417.699 378.998 410.379C379.554 399.605 382.145 387.608 386.2 377.597C379.86 371.346 372.167 362.416 364.518 358.088ZM453.727 359.568C453.313 358.215 453.312 357.862 452.247 356.969C448.797 357.524 444.798 363.506 442.838 366.241C441.657 367.889 440.636 369.097 440.662 371.148C441.276 372.115 441.846 373.048 442.589 373.924C448.222 380.594 453.893 386.824 458.997 393.963C460.866 389.227 463.235 384.889 465.813 380.506C462.441 374.683 458.163 364.111 453.727 359.568ZM127.303 433.821C122.971 434.988 118.54 435.755 114.067 436.113C112.929 455.261 116.289 464.803 124.62 481.884C124.259 477.146 123.665 472.293 123.538 467.551C126.493 462.721 126.429 454.689 128.24 449.18C130.289 442.947 133.4 436.92 136.16 430.974C133.224 431.735 129.944 432.311 127.303 433.821ZM430.061 465.101C419.679 448.738 416.096 428.198 415.952 409.101C413.708 406.192 411.348 403.319 409.239 400.315C404.792 427.269 409.112 451.329 425.203 473.702C439.007 492.896 457.776 505.605 478.963 515.305C481.412 517.375 485.014 519.43 488.188 520.01C489.45 523.64 491.688 528.105 491.225 531.97C460.452 524.69 433.619 510.33 416.468 482.762C399.993 456.278 396.95 423.62 402.207 393.411C400.593 391.587 399.001 389.738 397.32 387.974C390.462 420.264 392.809 454.644 411.33 482.894C425.2 504.05 445.072 517.76 468.389 526.735C474.155 528.95 480.16 531.265 486.227 532.475C488.054 532.84 489.899 533.325 491.666 532.525C491.943 533.7 491.735 533.165 492.354 534.275C493.472 536.275 494.417 539.16 495.874 540.855C496.052 538.88 496.045 536.88 495.482 534.96C494.369 531.17 492.2 527.365 490.825 523.605C487.944 515.73 485.982 507.41 482.161 499.895C481.552 501.7 482.291 503.765 482.478 505.645C481.928 505.7 481.429 505.68 480.884 505.58C477.541 504.97 474.089 503.24 470.947 501.94C451.239 493.778 443.071 481.338 431.09 464.913L430.061 465.101ZM471.098 615.905C465.168 624.437 458.489 632.424 451.14 639.77C445.714 645.235 439.868 650.375 434.614 655.995C430.497 660.395 427.147 665.6 423.282 670.235C416.759 678.06 409.629 685.44 402.567 692.775C408.099 705.05 413.954 716.87 420.504 728.63C421.315 730.215 422.141 731.41 423.524 732.565C427.776 736.11 432.913 738.95 437.525 742.02C444.427 746.615 451.241 751.605 457.565 756.97C463.677 762.155 468.525 767.78 473.222 774.235C473.553 773.711 473.877 773.183 474.194 772.65C501.595 726.81 510.16 641.8 504.88 589.13C503.525 575.585 500.64 562.835 497.242 549.68C490.415 548.35 483.685 546.72 476.936 545.05C479.161 561.095 483.239 584.72 478.678 600.225C476.997 605.935 474.169 610.845 471.098 615.905ZM810.525 648.215C801.49 654.09 793.125 660.86 784.215 666.9C773.84 673.93 762.94 680.17 752.615 687.245C772.9 703.94 787.42 719.27 804.745 738.935C819.745 755.955 834.715 774.23 846.51 793.67C857.15 796.33 867.93 798.63 878.47 801.65C904.28 809.045 930.505 819.725 953.98 832.755C962.15 837.285 969.755 842.68 977.745 847.505C973.28 838.835 968.92 830.165 963.775 821.87C959.594 815.109 955.328 808.4 950.98 801.745C948.225 797.59 934.83 779.265 933.965 776.31L934.28 775.955C938.435 780.725 941.95 786.675 945.55 791.91C952.96 802.675 960.31 813.495 966.85 824.815C972.7 834.935 977.88 845.435 983.905 855.445L990.89 852.345C986.85 839.1 974.955 818.49 967.645 806.305C928.405 740.88 878.745 687.53 817.535 642.155L810.525 648.215ZM296.717 656.39C289.821 643.22 277.591 635.79 263.644 631.42C244.822 625.515 221.535 626.265 202.029 628.13C203.232 632.25 204.391 635.905 208.445 638.085C214.324 641.25 233.521 639.04 240.832 639.11C248.673 639.18 257.036 639.41 264.692 641.145C250.028 642.87 234.789 643.335 220.021 643.75C220.585 650.195 220.462 658.2 225.702 662.825C227.123 664.08 228.787 664.8 230.58 665.355L230.42 666.14C235.416 669.395 249.651 666.2 254.32 670.875L254.975 670.95L254.527 670.16L255.055 670.11C254.996 675.615 255.263 680.1 258.172 684.96L258.053 683.905C262.261 692.15 265.974 700.32 271.69 707.68C270.408 703.325 269.215 698.925 267.785 694.62C270.054 697.545 277.093 704.665 277.643 707.84L278.956 708.23L279.714 707.7C281.242 702.45 279.263 695.025 277.873 689.885C280.027 693.09 282.065 696.415 284.949 699.02L284.885 690.87L284.514 690.25C289.433 687.645 290.739 693.235 295.391 693.035C296.732 692.435 297.559 691.71 298.271 690.425C299.006 689.1 298.916 689.03 298.487 687.635C298.698 679.605 299.613 679.13 296.869 671.06C298.45 670.585 299.977 670.33 301.067 669C301.731 667.05 301.498 664.975 301.169 662.985C300.76 660.5 300.162 657.59 297.978 656.085L296.717 656.39ZM176.813 184.691C175.379 184.798 173.912 184.89 172.6 185.526C167.62 187.941 150.224 199.743 145.495 203.673C141.997 206.599 138.741 209.803 135.758 213.253C133.405 215.972 131.284 218.781 129.526 221.924C142.789 211.994 150.392 210.823 166.804 213.105C232.334 222.22 361.587 332.618 408.992 380.327C427.187 398.639 444.719 418.727 460.162 439.385C472.404 455.762 482.365 473.075 491.186 491.496C499.326 508.495 506.635 526.33 511.56 544.555C523.585 589.01 523.08 638.95 516.485 684.225C512.65 710.6 506.685 737.54 494.202 761.275C483.508 781.605 468.457 798.015 454.136 815.695C433.497 841.185 414.129 874.11 407.116 906.43C405.679 913.815 403.583 921.77 405.491 929.23C411.671 871.615 472.401 817.41 501.395 768.785C539.38 705.09 543.85 577.625 518.05 508.75C508.07 482.113 493 457.837 477.309 434.254C466.554 418.09 455.521 402.273 443.333 387.141C390.427 321.457 316.894 258.938 241.872 220.007C224.091 210.779 205.675 201.624 185.832 197.951C191.828 193.986 197.287 189.354 203.087 185.127C194.426 183.9 185.528 184.265 176.813 184.691ZM206.207 186.518C202.541 189.23 199.256 192.098 196.115 195.406C209.809 199.141 222.183 204.609 235.135 210.335C280.081 230.204 322.349 258.513 359.668 290.417C367.197 296.854 374.194 303.933 381.434 310.692C396.588 324.839 411.613 339.013 426.098 353.853C427.175 354.956 431.435 360.143 432.56 360.166L433.632 358.756C436.896 354.255 441.205 349.934 445.649 346.6C407.189 286.42 367.334 245.63 302.158 214.823C281.129 204.883 258.414 196.337 235.66 191.352C226.483 189.341 215.521 186.793 206.207 186.518ZM187.662 232.585L184.727 233.177C191.253 235.379 197.575 238.348 203.72 241.444C207.445 243.322 218.959 250.758 221.489 251.158C221.201 250.999 220.91 250.844 220.624 250.68C219.483 250.029 218.719 249.194 217.87 248.213L219.355 248.497C213.706 243.691 194.704 233.553 187.662 232.585ZM251.667 272.133C246.744 306.295 235.004 329.907 222.557 361.388L223.057 361.975L222.919 362.184L222.287 362.11L222.126 363.335L222.995 362.292L222.27 362.672C223.492 361.895 223.739 360.991 224.398 359.72C229.419 351.58 235.092 343.776 239.817 335.476C249.33 318.768 257.344 296.289 257.778 277.041C255.904 275.372 253.909 273.274 251.667 272.133ZM514.655 327.913C514.915 329.506 514.915 330.333 516.3 331.392C519.245 333.645 523.01 335.115 526.285 336.813C529.84 338.655 533.305 340.827 536.56 343.161C560.56 360.384 574.99 387.883 580.26 416.564C580.382 417.235 580.496 417.908 580.6 418.582L580.87 418.834L580.935 419.393L581.225 419.415C579.73 393.816 564.195 364.264 545.335 347.417C537.59 340.498 524.785 330.589 514.655 327.913ZM506.565 365.661C492.868 367.877 482.086 374.986 473.947 386.236C471.604 389.473 465.996 397.897 467.002 401.894C467.318 403.149 467.775 403.746 468.805 404.479C470.574 403.05 471.864 396.969 473.018 394.625C481.665 377.063 498.624 367.521 518.075 369.639C530.135 370.952 540.35 377.451 547.82 386.831C556.89 398.224 560.575 413.043 558.935 427.442C558.198 434.198 556.153 440.746 552.915 446.721C544.74 461.623 534.44 470.032 518.08 474.787C516.544 475.232 515.006 475.669 513.465 476.097C514.585 477.419 515.68 478.837 516.945 480.022C533.895 473.86 548.375 465.4 556.245 448.408C563.315 433.139 564.465 416.284 558.58 400.439C553.67 387.203 543.495 375.53 530.595 369.623C523.104 366.111 514.787 364.74 506.565 365.661ZM508.82 393.174C501.67 394.027 495.591 396.573 490.979 402.352C486.204 408.335 484.466 416.745 485.543 424.267C486.532 431.179 490.692 437.699 496.299 441.819C501.39 445.561 507.37 447.131 513.615 446.998C521.225 445.489 527.355 442.246 531.815 435.651C536.045 429.394 537.395 421.912 535.805 414.556C534.235 407.308 529.68 400.436 523.295 396.603C519.295 394.202 513.505 392.496 508.82 393.174ZM769.48 485.412L769.705 486.386C770.985 491.856 773.275 497.131 774.665 502.605C781.755 530.58 780.485 552.94 765.235 578.085C739.165 621.055 701.005 647.67 660.495 675.89C653.85 680.515 647.075 685.07 640.295 689.49C637.01 691.63 633.295 693.47 630.355 696.06C631.465 696.345 632.93 695.415 634.005 694.985C652.17 687.42 669.745 680.04 686.84 670.21C721.51 650.275 759.895 615.025 775.37 577.525C786.235 551.2 786.775 524.95 775.705 498.547C773.865 494.155 771.96 489.465 769.48 485.412ZM468.531 552.325C470.127 592.185 473.985 599.355 445.886 629.725C414.818 663.305 376.443 690.335 337.661 714.245C329.298 719.365 320.864 724.367 312.361 729.25C308.464 731.465 298.746 735.6 296.086 738.335L297.115 738.06C338.807 724.26 447.675 643.485 467.284 604.68C469.221 600.768 470.551 596.583 471.227 592.27C472.704 582.905 472.218 562.99 469.237 554.07C468.905 553.075 468.959 553.255 468.531 552.325ZM337.728 731.46C335.39 732.905 333.069 734.46 330.629 735.725C337.537 748.8 347.709 760.155 357.239 771.355C362.988 778.115 369.023 784.855 373.094 792.805C374.221 795.005 375.153 797.245 375.592 799.69C376.782 806.335 376.394 813.545 376.953 820.305C377.782 830.325 379.394 840.4 380.963 850.33C383.564 866.785 386.677 882.985 390.976 899.09L392.065 902.67L391.92 901.92L392.258 902.205C390.183 887.712 389.005 873.104 388.731 858.465C388.446 840.915 391.038 822.875 385.746 805.815C380.9 790.19 371.242 775.465 362.449 761.81C356.574 752.68 349.734 744.895 342.725 736.685C341.585 735.35 339.857 732.69 338.476 731.76C338.253 731.61 337.977 731.56 337.728 731.46ZM431.882 752.87C424.185 764.02 418.303 776.36 410.293 787.29C407.705 790.82 400.908 797.07 400.243 801.215C399.574 805.385 401.446 811.645 401.936 815.95C402.564 821.554 403.004 827.177 403.257 832.81C404.941 828.59 407.008 824.755 409.228 820.805C414.716 812.355 420.504 804.295 427.539 797.04C436.3 788.005 445.796 780.51 453.151 770.095C446.895 763.37 438.07 759.41 431.882 752.87ZM368.195 824.365C366.831 829.42 366.935 835.215 366.925 840.445C366.874 865.945 372.347 897.395 385.145 919.725C387.73 924.23 390.818 928.67 394.301 932.53C393.95 928.765 387.673 918.5 385.87 913.955C377.885 893.83 373.913 871.405 371.239 849.98C370.181 841.495 369.7 832.77 368.195 824.365ZM367.326 923.365C371.963 934.698 380.899 943.733 392.179 948.495C403.657 953.325 419.122 951.01 430.642 947.5L430.972 947.165C425.55 947.445 420.198 948.365 414.751 948.575C398.47 949.195 386.954 942.325 375.162 931.685C372.514 929.3 370.189 925.175 367.326 923.365ZM366.524 949.925C369.127 959.99 374.665 969.975 379.429 979.17C384.164 979.17 389.07 979.445 393.781 979.075C386.505 973.45 379.587 967.31 373.887 960.05C371.401 956.88 369.358 952.7 366.524 949.925Z" fill="#0A260A"/>
<path d="M459.101 68.8914C410.854 70.8379 330.864 97.7024 288.149 120.506C282.492 118.907 276.949 117.315 271.128 116.415C286.433 105.567 307.316 96.9454 324.769 90.1719C375.167 70.6129 429.838 56.7319 484.303 60.8569C493.531 61.5554 502.71 63.1729 511.82 64.7289C532.2 68.2089 552.745 74.3124 571.995 81.7779C637.445 107.156 702.235 143.009 760.65 181.909C775.845 192.026 798.66 206.724 809.215 221.594C815.385 230.289 814.405 242.122 812.65 252.12C809.155 272.007 800.19 291.821 790.37 309.402C778.815 330.083 760.51 354.422 758.02 378.266C756.615 375.405 752.27 368.697 751.705 366C751.61 365.555 751.97 364.33 752.05 363.824C752.255 363.635 752.49 363.474 752.67 363.258C754.79 360.689 761.47 345.949 763.72 341.775C777.56 316.128 807.35 267.78 804.895 238.721C803.95 227.579 794.625 218.495 786.655 211.58C783.565 207.378 773.075 200.212 768.64 196.833C722.844 162.456 673.49 133.094 621.425 109.254C577.775 89.2009 529.58 72.6024 481.47 68.5254C475.696 68.0359 464.486 66.8974 459.101 68.8914Z" fill="#40A442"/>
<path d="M459.102 68.8917C464.487 66.8977 475.696 68.0362 481.471 68.5257C529.58 72.6027 577.775 89.2012 621.425 109.254C673.49 133.094 722.844 162.456 768.64 196.834C773.075 200.212 783.565 207.379 786.655 211.58C789.61 216.864 795.3 220.684 798.72 225.872C790.84 228.855 782.17 229.691 773.815 230.39C738.165 233.373 692.8 228.425 660.07 213.661C633.35 201.608 614.26 184.314 592.365 165.473C601.365 178.581 611.005 191.167 620.225 204.11C640.275 232.269 659.45 260.773 675.665 291.349C681.255 301.886 687.12 312.61 691.27 323.815C691.255 323.599 691.24 323.384 691.22 323.169C689.075 298.992 673.465 267.188 660.765 246.735C656.34 239.607 650.295 232.704 646.645 225.216C646.68 225.274 646.695 225.345 646.745 225.389C646.845 225.484 646.98 225.541 647.09 225.625C649.58 227.498 651.935 230.67 654.04 233.001C667.218 247.485 678.856 263.299 688.765 280.189C692.225 286.125 697.98 297.92 701.595 302.512C720.655 344.275 739.19 386.917 765.535 424.745C778.65 443.581 794.205 460.602 808.545 478.499C810.74 481.235 822.845 498.699 824.51 499.285C824.605 499.319 824.71 499.328 824.815 499.349C827.86 503.33 830.31 507.975 832.605 512.43C840.04 526.895 843.585 540.13 841.32 556.5C836.82 589.05 809.78 615.81 784.56 634.63C748.04 661.89 707.08 682.565 668.675 706.965C646.665 720.945 625.445 736.185 604.05 751.075C573.5 772.345 543.695 794.025 514.705 817.4C494.016 834.085 473.489 850.74 456.873 871.665C453.996 875.29 450.576 879.24 448.732 883.47C448.489 885.645 441.241 892.235 439.54 894.84C430.348 908.905 421.827 925.23 414.246 940.27C414.214 939.585 414.196 938.93 414.228 938.25C414.639 929.53 417.749 919.67 420.617 911.45C425.393 897.755 432.063 885.71 439.684 873.44C443.582 867.16 447.226 860.52 451.496 854.505C455.165 849.335 459.459 844.53 463.554 839.69C478.111 822.505 492.065 808.895 508.17 793.355C514.745 787.005 520.795 780.07 527.54 773.91C550.92 752.55 575.935 734.16 602.055 716.345C609.385 711.345 616.555 705.82 624.095 701.165C633.76 695.205 650.555 689.87 661.485 685.06C688.225 673.29 712.675 656.11 734.165 636.45C759.515 613.26 784.195 576.01 785.51 541.03C786.14 524.28 778.82 493.585 767.505 481.415C768.385 488.901 770 496.517 771.22 503.97L770.055 504.03L769.19 503.865C766.035 505.72 753.355 536.79 750.43 542.44C742.959 556.573 734.556 570.194 725.275 583.21C710.045 604.31 690.6 623.17 670.135 639.185C661.72 645.77 652.885 651.825 644.32 658.215C651.18 646.945 656.585 634.01 661 621.595C681.49 563.975 694.145 475.198 667.025 418.296C668.035 427.859 667.99 437.872 668.05 447.493C668.008 527.498 643.717 605.611 598.38 671.53C588.565 685.615 577.59 698.78 566.265 711.665C559.38 719.505 552.15 727.085 545.74 735.33C545.26 735.47 545.01 736.155 544.745 736.57C544.7 735.6 558.965 709.585 560.765 706.265C572.41 684.8 583.3 663.43 593.35 641.16C598.355 630.075 603.365 618.93 607.37 607.43C620.75 569.025 629.73 528.58 630.5 487.802C630.675 478.584 630.12 469.329 629.735 460.12C628.435 467.768 626.3 475.407 624.56 482.977C616.975 515.885 606.02 547.65 594.015 579.18C587.305 597.074 580.152 614.798 572.56 632.335C566.625 645.775 560.155 658.98 553.975 672.305C549.865 681.124 545.65 689.893 541.33 698.61C539.02 703.315 536.795 709.05 533.55 713.145C539.78 691.78 542.18 668.315 543.31 646.155C545.45 604.2 543.635 562.295 532.285 521.64C534.405 520.88 536.485 520.08 538.48 519.025C562.37 506.34 580.27 481.728 587.82 456.104C596.086 427.379 592.625 396.548 578.195 370.371C563.093 343.437 537.989 323.535 508.32 314.975C506.542 311.321 504.74 307.678 502.915 304.047C493.101 284.767 480.298 266.304 467.006 249.278C421.027 190.381 361.012 144.11 289.519 120.891C315.086 107.469 342.178 97.6792 369.66 89.0447C384.66 84.3322 399.746 79.7857 415.094 76.3402C422.786 74.6132 430.632 73.3762 438.434 72.2612C444.347 71.4162 453.857 71.1622 459.102 68.8917Z" fill="#33712F"/>
<path d="M182.621 170.254C183.974 164.85 225.075 138.61 231.989 134.462C236.599 131.697 241.593 128.614 246.797 127.134C255.708 124.598 269.02 127.802 277.778 129.996C342.643 146.242 413.538 200.265 455.366 251.318C467.852 266.558 478.533 283.458 488.628 300.35C490.706 303.826 498.913 316.899 499.316 320.377C498.189 320.144 492.787 309.636 491.878 308.041C477.583 282.969 461.027 259.314 441.435 238.119C428.911 224.562 415.525 211.83 401.359 200.002C368.211 172.82 319.412 143.242 277.511 132.696C270.05 130.818 261.68 128.405 253.99 128.259C251.264 128.207 248.899 128.619 246.357 129.615C233.727 134.564 192.214 161.097 182.621 170.254Z" fill="#40A442"/>
<path d="M182.621 170.254C192.214 161.097 233.727 134.564 246.357 129.615C248.899 128.619 251.264 128.207 253.99 128.259C261.68 128.405 270.05 130.818 277.511 132.696C319.412 143.242 368.211 172.82 401.359 200.002C415.525 211.831 428.911 224.563 441.435 238.119C461.027 259.314 477.583 282.969 491.878 308.041C492.787 309.636 498.189 320.144 499.316 320.377C503.55 324.662 513.99 349.296 515.455 355.797C498.435 356.296 484.358 360.898 471.191 371.83C469.567 368.36 458.859 348.118 458.658 346.426C457.849 341.584 451.775 333.32 449.069 328.97C427.193 293.798 405.767 268.399 374.178 241.583C363.747 232.728 352.645 224.232 341.029 216.983C298.133 190.217 234.155 166.526 183 170.698L182.621 170.254Z" fill="#093209"/>
<path d="M786.655 211.58C794.625 218.495 803.95 227.58 804.895 238.722C807.35 267.78 777.56 316.128 763.72 341.776C761.47 345.949 754.79 360.689 752.67 363.258C752.49 363.474 752.255 363.636 752.05 363.824L751.69 363.418C750.87 363.468 751.155 363.353 750.47 363.769C750.31 363.865 750.16 363.972 750 364.074C748.885 363.839 748.04 363.542 747.205 362.724C744.445 360.027 742.015 356.181 739.655 353.087C729.96 340.358 721.75 326.72 712.34 313.824C709.315 309.685 706.195 306.024 702.525 302.441L701.595 302.512C697.98 297.92 692.225 286.125 688.765 280.189C678.856 263.299 667.218 247.485 654.04 233.001C651.935 230.67 649.58 227.498 647.09 225.625C646.98 225.541 646.845 225.484 646.745 225.389C646.695 225.345 646.68 225.274 646.645 225.216C650.295 232.704 656.34 239.607 660.765 246.735C673.465 267.188 689.075 298.992 691.22 323.169C691.24 323.384 691.255 323.599 691.27 323.815C687.12 312.61 681.255 301.886 675.665 291.349C659.45 260.773 640.275 232.269 620.225 204.11C611.005 191.167 601.365 178.581 592.365 165.473C614.26 184.314 633.35 201.608 660.07 213.661C692.8 228.425 738.165 233.373 773.815 230.39C782.17 229.691 790.84 228.855 798.72 225.872C795.3 220.684 789.61 216.864 786.655 211.58Z" fill="#093209"/>
<path d="M458.658 346.426C455.961 342.025 453.229 337.646 450.462 333.288C400.741 255.56 328.884 197.364 237.342 178.13C224.512 175.435 211.591 173.329 198.47 172.909C195.666 172.82 192.846 172.642 190.042 172.791C186.48 172.98 181.836 174.13 178.404 173.375L178.741 172.663C180.145 171.754 181.415 171.223 183 170.697C234.154 166.525 298.132 190.216 341.028 216.983C352.645 224.231 363.746 232.727 374.178 241.583C405.766 268.398 427.192 293.798 449.069 328.969C451.774 333.32 457.848 341.584 458.658 346.426Z" fill="#40A442"/>
<path d="M129.526 221.924C131.284 218.781 133.405 215.971 135.758 213.253C138.741 209.803 141.997 206.599 145.495 203.673C150.224 199.743 167.62 187.941 172.6 185.526C173.912 184.889 175.379 184.798 176.813 184.691C185.528 184.264 194.426 183.9 203.087 185.127C197.287 189.354 191.828 193.985 185.832 197.95C205.675 201.624 224.091 210.779 241.872 220.006C316.894 258.937 390.427 321.457 443.333 387.141C455.521 402.272 466.554 418.09 477.309 434.254C493 457.836 508.07 482.112 518.05 508.75C543.85 577.625 539.38 705.09 501.395 768.785C472.401 817.41 411.671 871.615 405.491 929.23C403.583 921.77 405.679 913.815 407.116 906.43C414.129 874.11 433.497 841.185 454.136 815.695C468.457 798.015 483.508 781.605 494.202 761.275C506.685 737.54 512.65 710.6 516.485 684.225C523.08 638.95 523.585 589.01 511.56 544.555C506.635 526.33 499.326 508.495 491.186 491.496C482.365 473.075 472.404 455.761 460.162 439.385C444.719 418.727 427.187 398.638 408.992 380.326C361.587 332.617 232.334 222.219 166.804 213.105C150.392 210.822 142.789 211.994 129.526 221.924Z" fill="#40A442"/>
<path d="M196.115 195.406C199.257 192.098 202.542 189.23 206.207 186.518C215.521 186.793 226.483 189.341 235.661 191.352C258.414 196.337 281.129 204.883 302.159 214.823C367.335 245.63 407.19 286.42 445.649 346.6C441.205 349.934 436.896 354.255 433.632 358.756L432.56 360.166C431.435 360.143 427.175 354.956 426.098 353.853C411.614 339.013 396.588 324.839 381.434 310.692C374.195 303.933 367.198 296.854 359.669 290.417C322.349 258.513 280.082 230.204 235.136 210.335C222.183 204.609 209.809 199.141 196.115 195.406Z" fill="#33712F"/>
<path d="M52.0186 290.785C57.2906 289.122 62.4221 286.255 67.3081 283.675C85.5076 274.065 101.605 262.395 117.773 249.738C125.648 243.574 134.687 234.177 144.254 231.087C165.503 224.225 199.691 242.303 218.478 252.486C208.762 268.293 198.146 285.448 183.003 296.599C185.044 289.417 191.403 268.707 188.692 262.124C188.321 257.621 187.634 253.15 186.637 248.744C185.432 254.394 182.62 259.604 180.122 264.774C176.53 272.212 172.953 279.823 168.77 286.949C163.663 295.651 157.678 304.03 152.21 312.523C150.159 315.708 146.085 323.381 143.226 325.543C142.775 325.885 142.813 325.793 142.218 325.849C146.42 314.134 149.877 302.286 151.693 289.956C152.991 285.745 153.714 281.39 155.03 277.182C152.765 280.644 151.211 284.778 149.509 288.544C144.649 299.295 140.561 310.371 135.61 321.073C120.399 353.948 101.972 377.894 78.3371 405.191C83.5471 385.993 90.8081 367.269 96.2051 348.131C102.439 330.827 109.421 314.372 117.412 297.812C112.817 303.975 108.82 310.498 104.814 317.051C93.3611 334.265 84.3926 354.346 77.6411 373.844C75.8061 379.143 74.9451 387.707 72.6966 392.11C72.5316 391.378 72.3776 390.66 72.2566 389.919C64.3206 341.303 85.1035 315.92 116.589 283.37C125.199 274.469 134.074 266.049 141.243 255.873C143.469 253.062 145.637 250.199 147.894 247.415C123.601 266.119 97.4466 281.575 67.4086 288.804C63.5336 289.737 57.8711 291.802 53.9141 291.421C53.1611 291.348 52.6816 291.138 52.0186 290.785Z" fill="#33712F"/>
<path d="M221.49 251.158C218.96 250.757 207.445 243.321 203.72 241.444C197.576 238.347 191.253 235.378 184.728 233.177L187.662 232.584C194.704 233.552 213.707 243.691 219.355 248.497L217.871 248.212C218.719 249.193 219.483 250.028 220.624 250.68C220.91 250.843 221.201 250.998 221.49 251.158Z" fill="#0C1B0B"/>
<path d="M141.243 255.873L140.421 255.553C123.135 272.693 88.9758 297.927 64.1358 297.873C57.2538 297.859 49.6524 296.877 43.2637 294.237C46.0664 293.025 49.0459 291.468 52.0183 290.786C52.6813 291.139 53.1608 291.349 53.9138 291.421C57.8708 291.802 63.5333 289.737 67.4083 288.805C97.4463 281.576 123.601 266.12 147.893 247.415C145.637 250.199 143.469 253.063 141.243 255.873Z" fill="#093209"/>
<path d="M218.478 252.486C220.457 252.936 223.562 253.601 224.885 255.261C224.992 255.396 225.06 255.557 225.148 255.706C218.507 264.996 212.28 274.869 205.018 283.686C195.517 295.221 182.637 305.699 170.548 314.488C175.608 301.601 185.923 271.423 185.501 258.229L184.866 257.623L185.648 257.808L186.291 259.327C186.48 258.09 186.609 256.821 186.948 255.616C186.997 260.133 187.463 264.135 188.503 268.531C188.785 266.403 188.566 264.263 188.692 262.124C191.403 268.707 185.044 289.417 183.002 296.599C198.146 285.448 208.762 268.293 218.478 252.486Z" fill="#093209"/>
<path d="M237.09 273.16C237.887 273.468 237.954 273.262 238.172 273.952C238.717 275.677 238.019 278.631 237.771 280.42C235.119 299.562 223.685 321.207 213.507 337.57C194.356 368.357 167.437 392.003 136.471 410.444C127.96 415.513 118.46 421.19 108.68 423.212C108.081 423.336 107.533 423.338 106.926 423.342C137.878 408.353 168.901 368.903 184.022 338.824C172.901 349.046 161.901 359.723 150.235 369.318C123.479 391.324 94.9151 408.447 64.2271 424.361C78.9976 411.112 95.9106 400.534 110.485 386.968C123.792 374.582 135.141 360.572 147.762 347.583C158.907 336.115 171.204 325.851 183.278 315.392C178.766 326.38 163.573 343.027 155.549 352.597C177.611 337.139 203.472 304.727 216.7 281.315C218.47 278.183 228.021 256.866 228.287 256.642L229.271 257.019C229.928 258.275 230.133 259.275 230.168 260.699C230.311 266.605 228.87 272.743 227.501 278.454C217.841 318.759 184.949 354.597 157.408 384.33C179.359 370.053 192.592 358.391 207.366 336.492C210.068 332.486 213.191 328.551 215.211 324.144C224.965 308.314 232.337 291.136 237.09 273.16Z" fill="#33712F"/>
<path d="M248.344 269.072C245.319 267.032 242.32 264.862 239.183 263.002C238.685 266.427 237.505 269.788 237.09 273.16C232.337 291.136 224.965 308.314 215.211 324.144C215.166 323.963 215.118 323.784 215.077 323.603C214.567 321.32 216.934 318.326 218.13 316.538C219.307 314.776 226.105 300.237 226.829 298.142C229.959 289.081 232.554 269.969 239.222 262.869C240.95 263.229 243.455 264.41 244.796 265.593C246.202 266.832 248.037 267.518 249.121 269.051L248.344 269.072Z" fill="#0C1B0B"/>
<path d="M239.183 263.001C242.32 264.861 245.319 267.032 248.344 269.072C248.281 269.239 248.216 269.405 248.155 269.572C246.23 274.834 245.247 280.583 243.881 286.019C242.423 291.822 240.493 297.361 238.257 302.906C233.333 315.119 227.373 327.957 220.705 339.311C206.423 363.627 176.324 403.91 150.766 416.097C142.913 419.841 107.164 431.22 99.3717 428.354C98.8922 428.177 98.7412 428.076 98.2472 427.823L98.1367 427.431C100.165 426.519 105.183 423.617 106.926 423.342C107.533 423.338 108.081 423.336 108.68 423.212C118.46 421.19 127.96 415.513 136.471 410.444C167.437 392.003 194.356 368.357 213.507 337.57C223.685 321.207 235.119 299.561 237.771 280.419C238.019 278.63 238.717 275.677 238.172 273.952C237.954 273.262 237.887 273.468 237.09 273.16C237.505 269.787 238.685 266.426 239.183 263.001Z" fill="#093209"/>
<path d="M224.398 359.72C223.739 360.99 223.492 361.894 222.27 362.672L222.995 362.292L222.126 363.335L222.287 362.11L222.919 362.183L223.057 361.974L222.557 361.387C235.004 329.907 246.744 306.294 251.667 272.132C253.909 273.274 255.904 275.372 257.778 277.04C257.344 296.289 249.33 318.768 239.817 335.476C235.092 343.776 229.419 351.58 224.398 359.72Z" fill="#33712F"/>
<path d="M142.218 325.849C140.014 328.169 138.816 331.79 137.606 334.719L136.605 335.053L137.317 335.54L136.595 335.151L136.786 336.765L135.801 335.251L137.097 335.398C139.873 325.604 143.801 316.256 146.674 306.519C148.267 301.122 148.748 295.095 150.799 289.888L151.693 289.957C149.876 302.286 146.419 314.135 142.218 325.849Z" fill="#0A0F0A"/>
<path d="M285.596 295.375C287.492 296.642 289.117 297.942 290.746 299.538C293.614 308.142 295.433 317.047 298.184 325.688C303.953 343.81 310.848 361.793 317.634 379.558C320.331 386.608 323.295 393.552 326.522 400.376C329.591 406.93 333.084 413.417 335.162 420.367C303.663 391.981 290.471 373.799 276.936 333.556C277.001 339.756 276.469 354.784 278.305 359.943C278.314 360.108 278.321 360.273 278.333 360.439L278.396 361.264C278.611 364.328 279.291 367.101 280.059 370.065C276.441 361.664 272.29 353.953 265.755 347.476C267.856 343.497 270.195 339.669 272.128 335.599C278.239 322.734 282.079 309.127 285.596 295.375Z" fill="#33712F"/>
<path d="M104.814 317.051C108.82 310.498 112.817 303.976 117.412 297.812C109.421 314.373 102.439 330.827 96.205 348.131C95.8435 346.583 96.8205 343.437 97.538 341.96C97.935 341.142 98.238 340.362 98.552 339.509L98.171 339.217C96.87 340.766 96.056 342.799 95.1595 344.604L94.2075 344.882C98.378 336.971 104.61 325.996 104.814 317.051Z" fill="#0C1B0B"/>
<path d="M290.747 299.538C295.705 299.897 301.605 306.504 305.083 309.762C305.603 310.249 305.429 310.028 305.727 310.513C315.874 342.041 331.76 371.332 345.314 401.486C343.654 384.562 337.588 365.475 331.797 349.491C328.731 341.029 325.223 332.77 322.576 324.156C326.644 325.768 343.476 338.526 346.087 341.983L345.905 342.677L344.158 343.581C343.613 345.334 346.423 359.5 346.825 362.611C349.107 380.305 350.369 397.377 350.287 415.268C350.271 418.817 350.802 424.666 349.472 427.828L348.703 428.016L342.746 414.147C341.493 407.648 339.458 401.39 335.697 395.896L318.188 351.273C317.649 349.874 316.698 348.768 315.745 347.633L315.139 347.575C315.474 354.893 335.463 403.578 339.917 413.281C342.69 419.322 346.473 425.104 348.706 431.361C349.765 435.271 350.524 442.093 348.592 445.794C348.469 446.03 348.321 446.252 348.185 446.481C344.199 444.324 340.344 440.962 336.883 438.021C318.71 422.574 303.269 403.077 291.434 382.431C289.477 379.017 283.045 364.47 280.765 363.168C280.135 361.892 280.401 360.909 279.294 359.861L278.305 359.943C276.469 354.785 277.001 339.756 276.937 333.556C290.471 373.799 303.663 391.981 335.162 420.367C333.085 413.417 329.592 406.93 326.523 400.376C323.296 393.553 320.331 386.608 317.635 379.558C310.848 361.793 303.953 343.81 298.184 325.688C295.434 317.048 293.614 308.142 290.747 299.538Z" fill="#093209"/>
<path d="M305.727 310.513C311.482 314.887 317.101 319.436 322.576 324.156C325.223 332.77 328.731 341.029 331.797 349.491C337.588 365.475 343.654 384.562 345.314 401.486C331.76 371.332 315.874 342.041 305.727 310.513Z" fill="#33712F"/>
<path d="M72.6963 392.11C74.9448 387.707 75.8058 379.143 77.6408 373.844C84.3923 354.346 93.3608 334.265 104.814 317.051C104.61 325.996 98.3778 336.97 94.2073 344.881C92.2798 347.691 90.6688 350.832 89.3378 353.966C87.0118 359.442 75.9128 392.948 73.1618 394.259C72.9558 393.522 72.7743 392.874 72.6963 392.11Z" fill="#093209"/>
<path d="M581.225 419.415L580.935 419.393L580.87 418.834L580.6 418.582C580.496 417.908 580.383 417.235 580.26 416.564C574.99 387.883 560.56 360.384 536.56 343.161C533.305 340.827 529.84 338.655 526.285 336.813C523.01 335.115 519.245 333.645 516.3 331.392C514.915 330.333 514.915 329.506 514.655 327.913C524.785 330.589 537.59 340.498 545.335 347.417C564.195 364.264 579.73 393.816 581.225 419.415Z" fill="#69E369"/>
<path d="M348.706 431.361C346.473 425.104 342.69 419.322 339.917 413.281C335.463 403.578 315.474 354.893 315.139 347.575L315.745 347.633C316.698 348.768 317.649 349.874 318.188 351.273L335.697 395.896C336.523 401.772 339.461 409.171 342.746 414.147L348.703 428.016C348.911 429.294 349.029 430.077 348.706 431.361Z" fill="#0C1B0B"/>
<path d="M358.792 352.596C360.651 354.5 362.511 356.336 364.519 358.088C368.814 384.902 367.929 412.291 361.91 438.772C360.984 442.843 360.04 448.936 357.666 452.349C357.571 452.485 357.456 452.605 357.35 452.733C359.152 443.139 359.721 433.054 360.293 423.317C361.687 399.58 361.579 376.212 358.792 352.596Z" fill="#33712F"/>
<path d="M453.727 359.567C449.147 363.619 445.502 368.553 442.589 373.924C441.847 373.047 441.276 372.115 440.662 371.148C440.637 369.096 441.658 367.888 442.838 366.241C444.798 363.506 448.797 357.523 452.247 356.969C453.313 357.861 453.313 358.215 453.727 359.567Z" fill="#40A442"/>
<path d="M364.518 358.087C372.167 362.415 379.86 371.346 386.2 377.597C382.145 387.607 379.554 399.604 378.998 410.378C378.621 417.699 378.97 425.391 377.232 432.548C375.411 440.044 371.499 447.484 367.517 454.036C363.732 460.263 359.599 465.971 353.731 470.385C354.732 464.916 355.053 457.731 357.35 452.733C357.455 452.605 357.571 452.484 357.666 452.348C360.039 448.935 360.984 442.842 361.909 438.771C367.928 412.291 368.814 384.902 364.518 358.087Z" fill="#093209"/>
<path d="M442.589 373.924C445.501 368.553 449.147 363.619 453.727 359.567C458.163 364.111 462.441 374.683 465.813 380.506C463.235 384.889 460.866 389.226 458.997 393.962C453.893 386.824 448.222 380.594 442.589 373.924Z" fill="#093209"/>
<path d="M280.765 363.167C283.045 364.469 289.477 379.017 291.434 382.43C303.269 403.076 318.709 422.574 336.883 438.02C340.344 440.962 344.199 444.324 348.184 446.48C348.551 448.313 347.935 450.261 347.551 452.067C346.733 462.679 344.011 473.359 343.98 483.982C353.774 480.78 361.158 475.089 368.156 467.643C370.715 464.736 373.603 461.795 375.746 458.575C377.036 456.637 377.775 454.433 379.203 452.582L379.843 454.864C384.803 469.946 389.871 484.559 398.757 497.895C402.833 504.015 407.768 509.52 411.91 515.575C407.764 515.325 403.613 515.157 399.46 515.07C405.274 517.345 407.778 518.215 410.342 524.105C411.942 527.785 414.507 533.905 412.99 537.82C411.986 538.685 411.138 538.91 409.833 538.84C407.247 538.71 404.61 537.91 402.11 537.255C406.69 541.79 410.962 548.1 410.978 554.86C410.979 555.53 410.865 556.175 410.753 556.835L409.681 557.775C405.696 557.225 401.758 556.455 397.786 555.835C401.478 558.935 402.967 561.31 403.407 566.195C403.553 567.81 403.585 569.43 403.583 571.05C397.807 570.81 392.732 569.87 387.284 567.92C392.117 571.225 397.131 574.535 401.547 578.39L401.389 579.39L401.967 578.505L401.794 579.53L402.179 579L402.428 579.67C401.207 579.95 400.001 580.215 398.764 580.425C395.34 579.5 391.914 578.49 388.463 577.68C391.251 579.63 394.074 581.55 396.789 583.6C389.819 587.97 383.569 588.75 375.604 587.18C380.474 590.3 386.566 592.595 392.172 594.005L393.037 595.08L392.775 595.73C392.128 597.3 391.407 599.49 389.715 600.255C388.013 601.03 385.282 600.085 383.585 599.675L383.665 600.35C386.062 602.02 388.944 602.805 391.774 603.43C377.732 616.835 359.976 615.97 342.091 619.07C353.351 619.96 364.447 622.045 375.701 623.08C365.832 628.945 349.165 630.06 337.916 628.9C347.003 632.235 356.251 633.955 365.514 636.575C352.77 643.31 339.689 643.275 325.62 642.965C336.029 647.17 346.307 649.26 357.172 651.725C345.443 655.715 330.936 660.29 319.056 654.5C309.485 649.835 302.339 640.565 294.482 633.56C287.771 627.58 280.714 623.125 272.711 619.115C268.936 617.225 264.569 614.875 260.373 614.16C260.065 614.04 259.759 613.915 259.449 613.795C248.504 609.65 235.59 609.985 224.119 608.145C219.372 607.38 214.513 605.66 209.729 605.42C207.453 605.305 205.486 605.635 203.419 606.56C200.811 607.985 198.743 610.875 196.776 613.085C196.212 610.415 195.793 607.675 194.155 605.435C194.123 605.38 194.095 605.32 194.061 605.265C188.102 595.785 171.874 596.36 162.058 593.97C153.37 591.855 147.122 587.32 142.447 579.65C145.657 574.395 149.497 569.515 152.707 564.225C162.4 548.25 187.582 497.612 177.481 480.97C174.596 476.218 169.626 472.459 165.709 468.56C154.834 457.736 150.682 443.965 147.129 429.411L146.587 426.896C146.782 426.574 146.898 426.19 147.17 425.93C148.571 424.591 155.549 422.198 157.69 421.226C165.741 417.573 173.915 413.605 181.411 408.909C190.534 403.194 197.056 396.206 204.407 388.533C200.231 396.215 195.133 402.366 189.244 408.763C215.584 403.218 240.009 382.216 255.661 361.148C259.05 365.495 261.98 370.29 265.196 374.78C273.308 386.104 282.06 394.484 293.531 402.22C287.274 390.362 283.286 376.287 280.765 363.167ZM233.498 401.032C227.373 401.549 221.376 404.132 216.249 407.432C210.996 410.814 206.41 415.492 201.808 419.701C195.936 425.073 190.06 430.228 183.612 434.911C179.583 437.837 161.394 447.958 159.58 450.512C158.82 451.584 158.568 452.586 158.847 453.876C159.658 457.618 163.356 461.565 166.655 463.299C174.721 467.536 187.253 465.621 195.539 462.836C196.669 462.457 197.785 462.007 198.938 461.71C196.865 463.963 193.919 466.444 194.106 469.773C194.14 470.371 194.186 470.56 194.28 471.109C197.909 470.622 200.273 467.692 202.825 465.299C203.457 464.71 204.111 464.156 204.778 463.608C225.365 446.681 241.257 446.527 266.647 449.021C263.466 447.899 260.285 446.806 257.004 446.009C238.037 441.403 221.821 447.446 205.696 457.309C207.348 453.455 216.881 444.862 220.385 441.346C220.45 441.272 220.513 441.196 220.58 441.124C235.72 424.704 250.446 422.03 271.711 419.753C282.638 418.577 293.599 417.761 304.579 417.304L305.642 418.571C307.06 418.764 307.875 418.76 309.297 418.384C305.565 415.212 302.085 411.735 298.554 408.344C295.56 408.385 292.539 407.293 290.01 409.169C287.959 408.469 285.978 407.678 283.987 406.822C276.521 404.743 269.2 402.746 261.501 401.685C252.606 400.181 242.412 399.25 233.498 401.032ZM223.49 493.935C226.593 496.697 224.185 497.412 224.44 500.94C224.856 501.78 225.238 502.305 226.017 502.82C229.004 504.8 232.84 504.805 236.236 504.16C247.99 501.915 258.793 493.037 265.192 483.205C269.805 476.116 273.307 468.079 271.352 459.541C271.067 458.295 271.508 457.737 271.953 456.577C269.534 454.356 262.555 454.075 259.324 453.764C240.114 451.915 219.425 454.328 204.078 466.935C202.1 469.336 200.486 470.869 200.763 474.201C201.436 475.33 201.548 475.584 202.933 475.882C205.429 476.42 209.148 474.695 211.353 473.647C213.881 481.21 218.022 488.132 223.49 493.935ZM208.637 554.305C211.611 557.46 214.716 560.69 216.943 564.435C221.007 571.27 220.354 577.825 218.44 585.15C214.527 594.31 210.016 593.315 203.547 598.965L204.196 599.735C204.914 599.705 204.903 599.735 205.733 599.545C210.759 598.42 216.317 594.85 219.139 590.585C222.556 585.425 223.593 578.565 222.224 572.565C220.467 564.86 215.299 558.37 208.637 554.305ZM202.99 588.115C191.325 587.06 179.254 588.1 167.604 589.125L167.644 589.305C170.946 592.465 197.591 588.385 204.807 592.44C204.922 592.505 205.665 592.95 205.817 593.005C207.054 593.435 207.262 593.3 208.306 592.7C208.603 591.37 208.52 591.355 207.907 590.12C206.414 588.84 204.871 588.57 202.99 588.115ZM211.947 501.91L212.128 503.425C219.324 508.155 235.535 516.16 244.164 516.07C241.162 513.375 216.105 502.365 211.947 501.91Z" fill="#F1C082"/>
<path d="M552.915 446.721C556.153 440.746 558.198 434.198 558.935 427.442C560.575 413.043 556.89 398.224 547.82 386.831C540.35 377.451 530.135 370.952 518.075 369.639C498.624 367.521 481.665 377.063 473.018 394.625C471.864 396.969 470.574 403.05 468.805 404.479C467.775 403.746 467.318 403.149 467.002 401.894C465.996 397.897 471.604 389.473 473.947 386.236C482.086 374.986 492.868 367.877 506.565 365.661C514.787 364.74 523.104 366.111 530.595 369.623C543.495 375.53 553.67 387.203 558.58 400.439C564.465 416.284 563.315 433.139 556.245 448.408C548.375 465.4 533.895 473.86 516.945 480.022C515.68 478.837 514.585 477.419 513.465 476.097C515.006 475.669 516.544 475.232 518.08 474.787C534.44 470.032 544.74 461.623 552.915 446.721Z" fill="#9F7738"/>
<path d="M402.207 393.411C396.95 423.62 399.993 456.278 416.469 482.762C433.619 510.33 460.452 524.69 491.226 531.97L491.666 532.525C489.899 533.325 488.055 532.84 486.228 532.475C480.16 531.265 474.155 528.95 468.39 526.735C445.072 517.76 425.201 504.05 411.331 482.894C392.809 454.644 390.462 420.264 397.321 387.974C399.001 389.738 400.593 391.587 402.207 393.411Z" fill="#40A442"/>
<path d="M513.615 446.997C507.37 447.131 501.39 445.561 496.299 441.819C490.692 437.698 486.532 431.179 485.543 424.267C484.466 416.744 486.204 408.335 490.979 402.351C495.591 396.572 501.67 394.026 508.82 393.174C513.505 392.496 519.295 394.202 523.295 396.602C529.68 400.435 534.235 407.307 535.805 414.556C537.395 421.912 536.045 429.393 531.815 435.65C527.355 442.245 521.225 445.488 513.615 446.997ZM510.22 398.648C504.09 399.533 498.861 401.752 494.965 406.8C491.397 411.424 490.178 417.45 491.08 423.168C491.933 428.573 494.765 433.506 499.221 436.732C503.59 439.895 508.12 440.529 513.34 440.536C519.29 439.37 524.21 437.126 527.675 431.877C531.075 426.731 531.785 420.103 530.31 414.189C529 408.95 525.73 404.219 521.07 401.431C517.875 399.521 513.945 398.438 510.22 398.648Z" fill="#9F7738"/>
<path d="M335.696 395.896C339.458 401.39 341.493 407.648 342.746 414.147C339.461 409.171 336.522 401.772 335.696 395.896Z" fill="#0A260A"/>
<path d="M513.34 440.536C508.12 440.529 503.59 439.896 499.221 436.733C494.765 433.506 491.933 428.573 491.08 423.168C490.178 417.45 491.397 411.424 494.965 406.8C498.861 401.752 504.09 399.533 510.22 398.648C513.945 398.438 517.875 399.521 521.07 401.431C525.73 404.219 529 408.95 530.31 414.189C531.785 420.103 531.075 426.732 527.675 431.877C524.21 437.127 519.29 439.37 513.34 440.536ZM508.985 401.114C503.65 402.305 499.226 404.553 496.132 409.237C493.257 413.588 492.446 418.925 493.56 423.99C494.584 428.648 497.378 432.908 501.49 435.391C504.87 437.431 508.71 438.115 512.62 437.892C517.74 437.198 521.965 435.788 525.235 431.488C528.395 427.332 529.275 421.801 528.455 416.729C527.655 411.784 525.09 407.203 521.01 404.24C517.415 401.631 513.34 400.85 508.985 401.114Z" fill="#0A0F0A"/>
<path d="M233.498 401.032C242.413 399.25 252.607 400.181 261.502 401.685C260.851 402.157 260.427 402.425 259.625 402.553C257.652 402.87 238.324 402.658 235.993 402.242C235.065 402.076 234.278 401.526 233.498 401.032Z" fill="#0C1B0B"/>
<path d="M198.938 461.71C197.785 462.008 196.669 462.457 195.539 462.837C187.253 465.621 174.721 467.537 166.655 463.299C163.356 461.566 159.658 457.619 158.847 453.876C158.568 452.586 158.82 451.584 159.58 450.513C161.394 447.958 179.583 437.838 183.612 434.911C190.06 430.228 195.936 425.073 201.808 419.702C206.41 415.492 210.996 410.814 216.249 407.432C221.376 404.132 227.373 401.549 233.498 401.033C234.277 401.527 235.064 402.077 235.992 402.242C238.324 402.659 257.651 402.87 259.624 402.554C260.426 402.425 260.85 402.157 261.501 401.686C269.2 402.746 276.521 404.743 283.987 406.823C285.978 407.679 287.959 408.47 290.01 409.169C295.132 411.498 299.936 414.123 304.579 417.305C293.6 417.761 282.638 418.578 271.711 419.753C250.446 422.03 235.72 424.705 220.58 441.124C220.513 441.197 220.45 441.273 220.385 441.347C216.881 444.863 207.348 453.455 205.696 457.31C204.083 458.863 202.586 459.796 200.61 460.823L198.938 461.71Z" fill="#0A260A"/>
<path d="M415.952 409.1C416.097 428.198 419.679 448.738 430.061 465.101C436.524 476.867 446.201 489.004 457.457 496.53C461.337 499.125 465.728 500.995 469.488 503.75C472.939 506.655 477.334 511.035 478.964 515.305C457.777 505.605 439.007 492.895 425.203 473.702C409.112 451.328 404.793 427.268 409.239 400.314C411.349 403.319 413.709 406.192 415.952 409.1Z" fill="#33712F"/>
<path d="M512.62 437.892C508.71 438.115 504.87 437.431 501.49 435.39C497.378 432.907 494.584 428.647 493.56 423.989C492.446 418.925 493.257 413.588 496.132 409.237C499.226 404.553 503.65 402.304 508.985 401.114C513.34 400.85 517.415 401.631 521.01 404.24C525.09 407.203 527.655 411.783 528.455 416.729C529.275 421.8 528.395 427.332 525.235 431.488C521.965 435.788 517.74 437.198 512.62 437.892ZM509.065 407.074C505.12 408.579 502.155 410.615 500.36 414.566C498.91 417.759 498.712 421.6 499.996 424.88C500.546 426.287 501.379 427.566 502.445 428.636C503.51 429.707 504.785 430.546 506.19 431.101C508.625 432.086 510.885 432.032 513.455 431.804C517.355 430.532 520.3 429.004 522.165 425.152C523.68 422.019 523.745 418.307 522.535 415.062C521.325 411.813 518.88 409.133 515.655 407.808C513.485 406.918 511.365 406.953 509.065 407.074Z" fill="#9F7738"/>
<path d="M824.815 499.349C817.18 487.172 807.9 476.294 799.22 464.882C784.93 446.089 767.89 421.438 757.485 400.543C768.725 414.279 778.89 428.887 790.26 442.571L820.745 478.755C831.565 491.598 842.96 504.55 850.665 519.6C856.345 530.69 859.6 542.985 858.425 555.505C855.74 584.135 831.65 605.635 810.725 622.745C774.51 652.36 732.045 673.555 692.53 698.215C646.858 726.768 602.256 756.997 558.815 788.84C540.084 802.196 521.782 816.143 503.935 830.66C495.676 837.305 487.261 843.84 479.414 850.975C467.921 861.42 459.301 872.835 448.732 883.47C450.576 879.24 453.995 875.29 456.872 871.665C473.488 850.74 494.015 834.085 514.705 817.4C543.695 794.025 573.5 772.345 604.05 751.075C625.445 736.185 646.665 720.945 668.675 706.965C707.08 682.565 748.04 661.89 784.56 634.63C809.78 615.81 836.82 589.05 841.32 556.5C843.585 540.13 840.04 526.895 832.605 512.43C830.31 507.975 827.86 503.33 824.815 499.349Z" fill="#40A442"/>
<path d="M513.455 431.804C510.885 432.032 508.625 432.086 506.19 431.101C504.786 430.546 503.511 429.707 502.445 428.636C501.379 427.566 500.546 426.287 499.997 424.88C498.713 421.6 498.911 417.759 500.36 414.566C502.155 410.615 505.12 408.579 509.065 407.074C511.365 406.953 513.485 406.918 515.655 407.808C518.88 409.133 521.325 411.813 522.535 415.062C523.745 418.307 523.68 422.019 522.165 425.152C520.3 429.004 517.355 430.532 513.455 431.804ZM510.165 409.504C506.79 410.827 504.43 412.321 502.855 415.722C501.65 418.329 501.425 421.474 502.61 424.127C503.083 425.163 503.761 426.092 504.604 426.858C505.446 427.624 506.435 428.211 507.51 428.584C509.15 429.163 510.975 429.07 512.685 429.065C515.81 427.999 518.125 426.869 519.64 423.782C520.885 421.248 521.115 418.343 520.165 415.669C519.724 414.434 519.027 413.306 518.12 412.36C517.213 411.413 516.115 410.669 514.9 410.176C513.345 409.55 511.82 409.505 510.165 409.504Z" fill="#0A0F0A"/>
<path d="M290.01 409.169C292.539 407.293 295.56 408.385 298.554 408.344C302.085 411.735 305.565 415.212 309.297 418.384C307.875 418.76 307.06 418.764 305.642 418.571L304.579 417.304C299.936 414.123 295.132 411.497 290.01 409.169Z" fill="url(#paint0_linear_3010_11)"/>
<path d="M512.685 429.065C510.975 429.07 509.15 429.163 507.51 428.584C506.434 428.211 505.446 427.624 504.603 426.858C503.761 426.092 503.083 425.163 502.61 424.127C501.425 421.474 501.65 418.329 502.855 415.722C504.43 412.321 506.79 410.827 510.165 409.504C511.82 409.505 513.345 409.55 514.9 410.176C516.115 410.669 517.213 411.413 518.12 412.36C519.027 413.306 519.724 414.434 520.165 415.669C521.115 418.343 520.885 421.248 519.64 423.782C518.125 426.869 515.81 427.999 512.685 429.065Z" fill="#9F7738"/>
<path d="M127.303 433.821C129.944 432.311 133.224 431.735 136.16 430.974C133.4 436.92 130.289 442.947 128.24 449.18C126.429 454.689 126.493 462.721 123.538 467.551C121.45 458.151 121.574 445.719 125.851 436.917C126.349 435.891 126.822 434.855 127.303 433.821Z" fill="#093209"/>
<path d="M114.068 436.113C118.54 435.755 122.971 434.987 127.304 433.821C126.822 434.855 126.35 435.89 125.851 436.916C121.574 445.719 121.45 458.15 123.539 467.551C123.665 472.293 124.26 477.146 124.62 481.883C116.29 464.803 112.93 455.26 114.068 436.113Z" fill="#33712F"/>
<path d="M205.696 457.31C221.821 447.447 238.038 441.404 257.004 446.01C260.285 446.806 263.467 447.9 266.648 449.022C241.257 446.527 225.365 446.681 204.778 463.608C204.111 464.157 203.457 464.71 202.826 465.3C200.274 467.692 197.909 470.623 194.28 471.109C194.186 470.56 194.14 470.372 194.107 469.774C193.919 466.445 196.865 463.964 198.939 461.71L200.611 460.823C202.587 459.796 204.083 458.863 205.696 457.31Z" fill="url(#paint1_linear_3010_11)"/>
<path d="M204.078 466.935C219.426 454.328 240.115 451.915 259.325 453.764C262.555 454.075 269.534 454.356 271.954 456.577C271.509 457.737 271.067 458.295 271.353 459.541C273.308 468.079 269.806 476.116 265.192 483.205C258.794 493.037 247.99 501.915 236.236 504.16C232.841 504.805 229.005 504.8 226.018 502.82C225.239 502.305 224.857 501.78 224.44 500.94C224.185 497.412 226.593 496.697 223.49 493.935C218.022 488.132 213.881 481.209 211.354 473.647C209.148 474.695 205.43 476.42 202.933 475.882C201.549 475.584 201.437 475.33 200.764 474.201C200.486 470.869 202.1 469.336 204.078 466.935ZM230.728 464.835C229.195 464.62 228.387 464.541 226.93 465.251C225.943 466.337 225.487 467.09 224.948 468.457C225.39 469.812 225.451 470.988 226.912 471.628C227.707 471.976 228.987 472.01 229.86 472.117C232.05 473.232 233.857 474.228 234.606 476.74C235.103 478.406 235.26 480.273 235.495 481.995C234.625 483.529 233.834 484.408 232.406 485.443C231.914 485.392 231.199 485.327 230.732 485.232C228.911 484.859 227.985 484.002 226.958 482.496C224.961 479.567 223.621 475.031 224.278 471.513L224.18 468.749L223.526 468.215C221.798 469.681 221.467 471.598 221.286 473.82C220.884 478.755 222.676 483.581 225.877 487.313C226.769 488.35 227.752 489.305 228.814 490.166C230.02 491.487 231.197 493.015 233.129 493.142C234.963 493.262 236.536 492.311 237.692 490.97C240.397 487.834 241.116 483.016 240.706 479.037C240.152 474.995 240.075 467.432 236.663 464.845C234.837 463.46 232.73 464.35 230.728 464.835ZM243.494 462.19C241.596 462.462 239.671 462.676 237.795 463.074C241.34 470.838 244.51 481.435 241.176 489.805C239.95 492.882 238.102 495.113 235.025 496.383C234.613 496.551 234.199 496.712 233.783 496.865C240.034 497.483 244.452 497.242 249.904 493.699C258.984 486.964 264.989 477.832 267.828 466.887C260.361 461.929 252.261 461.15 243.494 462.19Z" fill="#0C1B0B"/>
<path d="M237.795 463.074C239.671 462.676 241.596 462.462 243.494 462.19C252.261 461.15 260.361 461.929 267.828 466.887C264.989 477.832 258.984 486.964 249.904 493.699C244.452 497.242 240.034 497.483 233.783 496.865C234.199 496.712 234.614 496.551 235.025 496.383C238.102 495.113 239.95 492.882 241.176 489.805C244.51 481.435 241.34 470.838 237.795 463.074Z" fill="#FEFEFE"/>
<path d="M230.728 464.836C232.729 464.351 234.837 463.461 236.663 464.845C240.074 467.433 240.151 474.996 240.706 479.038C241.115 483.017 240.397 487.834 237.692 490.971C236.536 492.311 234.962 493.263 233.128 493.142C231.197 493.016 230.02 491.487 228.813 490.167L228.777 486.393C229.755 485.372 231.03 485.585 232.406 485.443C233.833 484.408 234.625 483.53 235.495 481.996C235.26 480.274 235.102 478.407 234.606 476.74C233.857 474.228 232.05 473.233 229.86 472.118L230.138 471.61C231.566 468.944 231.569 467.688 230.728 464.836Z" fill="#33712F"/>
<path d="M224.948 468.457C225.487 467.09 225.943 466.337 226.93 465.251C228.387 464.541 229.195 464.621 230.728 464.836C231.57 467.688 231.566 468.943 230.138 471.61L229.86 472.117C228.987 472.01 227.707 471.976 226.912 471.628C225.451 470.988 225.39 469.812 224.948 468.457Z" fill="#FEFEFE"/>
<path d="M430.061 465.101L431.09 464.913C443.071 481.338 451.239 493.778 470.948 501.94C474.089 503.24 477.541 504.97 480.884 505.58C481.429 505.68 481.928 505.7 482.478 505.645C482.292 503.765 481.553 501.7 482.162 499.895C485.982 507.41 487.945 515.73 490.825 523.605C492.201 527.365 494.37 531.17 495.482 534.96C496.046 536.88 496.053 538.88 495.875 540.855C494.418 539.16 493.473 536.275 492.354 534.275C491.735 533.165 491.944 533.7 491.666 532.525L491.226 531.97C491.688 528.105 489.45 523.64 488.188 520.01C486.663 515.72 485.153 511.475 483.239 507.34C478.683 506.2 474.171 504.215 469.488 503.75C465.728 500.995 461.337 499.125 457.457 496.531C446.201 489.004 436.524 476.867 430.061 465.101Z" fill="#0C1B0B"/>
<path d="M228.813 490.166C227.752 489.305 226.769 488.35 225.876 487.313C222.676 483.581 220.883 478.755 221.286 473.82C221.467 471.598 221.798 469.681 223.525 468.215L224.179 468.749L224.278 471.513C223.62 475.031 224.961 479.567 226.958 482.496C227.984 484.002 228.911 484.859 230.731 485.232C231.198 485.327 231.914 485.392 232.406 485.443C231.03 485.585 229.755 485.371 228.777 486.393L228.813 490.166Z" fill="#073E07"/>
<path d="M634.005 694.985C632.93 695.415 631.465 696.345 630.355 696.06C633.295 693.47 637.01 691.63 640.295 689.49C647.075 685.07 653.85 680.515 660.495 675.89C701.005 647.67 739.165 621.055 765.235 578.085C780.485 552.94 781.755 530.58 774.665 502.605C773.275 497.131 770.985 491.856 769.705 486.386L769.48 485.412C771.96 489.465 773.865 494.155 775.705 498.547C786.775 524.95 786.235 551.2 775.37 577.525C759.895 615.025 721.51 650.275 686.84 670.21C669.745 680.04 652.17 687.42 634.005 694.985Z" fill="#40A442"/>
<path d="M244.164 516.07C235.535 516.16 219.324 508.155 212.128 503.425L211.947 501.91C216.105 502.365 241.162 513.375 244.164 516.07Z" fill="#0A0F0A"/>
<path d="M469.487 503.75C474.17 504.215 478.683 506.2 483.238 507.34C485.152 511.475 486.663 515.72 488.188 520.01C485.014 519.43 481.412 517.375 478.963 515.305C477.333 511.035 472.938 506.655 469.487 503.75Z" fill="#093209"/>
<path d="M770.055 504.03L771.22 503.97C772.58 510.27 774.63 525.23 772.68 531.29C771.545 531.86 771.4 531.875 770.135 531.74C769.03 529.875 769.71 525.49 769.785 523.195C769.24 525.38 768.676 527.56 768.095 529.735L767.53 529.945L767.605 530.72L767.67 530.705C767.2 527.055 768.76 521.945 769.305 518.245C770.005 513.465 770.36 508.855 770.055 504.03Z" fill="#073E07"/>
<path d="M402.567 692.775C409.629 685.44 416.759 678.06 423.282 670.235C427.147 665.6 430.497 660.395 434.614 655.995C439.868 650.375 445.714 645.235 451.14 639.77C458.488 632.424 465.168 624.437 471.098 615.905C474.169 610.845 476.997 605.935 478.678 600.225C483.239 584.72 479.161 561.095 476.936 545.05C483.685 546.72 490.415 548.35 497.242 549.68C500.64 562.835 503.525 575.585 504.88 589.13C510.16 641.8 501.595 726.81 474.194 772.65C473.877 773.183 473.553 773.711 473.222 774.235C468.525 767.78 463.677 762.155 457.565 756.97C451.241 751.605 444.427 746.615 437.525 742.02C432.913 738.95 427.776 736.11 423.524 732.565C422.141 731.41 421.315 730.215 420.504 728.63C413.954 716.87 408.099 705.05 402.567 692.775Z" fill="#F1C082"/>
<path d="M297.115 738.06L296.086 738.335C298.746 735.6 308.464 731.465 312.361 729.25C320.864 724.367 329.298 719.365 337.661 714.245C376.443 690.335 414.818 663.305 445.886 629.725C473.985 599.355 470.127 592.185 468.531 552.325C468.959 553.255 468.905 553.075 469.237 554.07C472.218 562.99 472.704 582.905 471.227 592.27C470.551 596.583 469.221 600.768 467.284 604.68C447.675 643.485 338.807 724.26 297.115 738.06Z" fill="#69E369"/>
<path d="M218.44 585.15C220.354 577.825 221.007 571.27 216.943 564.435C214.716 560.69 211.611 557.46 208.637 554.305C215.299 558.37 220.467 564.86 222.224 572.565C223.593 578.565 222.556 585.425 219.139 590.585C216.317 594.85 210.759 598.42 205.733 599.545C204.903 599.735 204.914 599.705 204.196 599.735L203.547 598.965C210.016 593.315 214.527 594.31 218.44 585.15Z" fill="#0A0F0A"/>
<path d="M397.786 555.835C401.758 556.455 405.696 557.225 409.682 557.775L409.145 557.91C407.266 558.37 405.486 558.595 403.559 558.725C404.981 566.68 407.748 572.46 403.587 580.275L402.62 580.8C401.271 580.79 400.093 580.665 398.765 580.425C400.001 580.215 401.208 579.95 402.429 579.67L402.179 579L401.794 579.53L401.968 578.505L401.389 579.39L401.548 578.39C397.131 574.535 392.117 571.225 387.285 567.92C392.733 569.87 397.808 570.81 403.583 571.05C403.585 569.43 403.553 567.81 403.408 566.195C402.967 561.31 401.478 558.935 397.786 555.835Z" fill="#0C1B0B"/>
<path d="M388.463 577.68C391.914 578.49 395.34 579.5 398.764 580.425C400.092 580.665 401.27 580.79 402.619 580.8C401.164 581.715 399.715 582.515 398.595 583.85L396.789 583.6C394.074 581.55 391.251 579.63 388.463 577.68Z" fill="#0A0F0A"/>
<path d="M375.604 587.18C383.569 588.75 389.82 587.97 396.789 583.6L398.595 583.85C398.512 583.97 398.431 584.09 398.346 584.21C396.511 586.78 393.006 587.93 391.68 590.615C392.429 592.42 394.19 592.25 395.11 594.01C394.311 595.06 394.259 594.83 393.037 595.08L392.172 594.005C386.566 592.595 380.474 590.3 375.604 587.18Z" fill="url(#paint2_linear_3010_11)"/>
<path d="M167.604 589.125C179.254 588.1 191.325 587.06 202.99 588.115C204.871 588.57 206.414 588.84 207.907 590.12C208.52 591.355 208.603 591.37 208.306 592.7C207.262 593.3 207.054 593.435 205.817 593.005C205.665 592.95 204.922 592.505 204.807 592.44C197.591 588.385 170.946 592.465 167.644 589.305L167.604 589.125Z" fill="#0A0F0A"/>
<path d="M194.155 605.435C195.793 607.675 196.212 610.415 196.776 613.085C198.743 610.875 200.811 607.985 203.419 606.56C202.425 609.965 202.31 612.73 202.641 616.215C200.383 615.345 197.952 615.505 195.881 614.14C195.236 613.18 194.968 612.595 194.91 611.455C194.808 609.435 194.411 607.445 194.155 605.435Z" fill="#0A0F0A"/>
<path d="M202.029 628.13C221.535 626.265 244.822 625.515 263.644 631.42C277.591 635.79 289.821 643.22 296.717 656.39C298.023 660.335 299.025 664.01 299.398 668.165C296.846 667.68 294.089 664.605 291.982 663.035C293.631 665.685 295.369 668.32 296.869 671.06C299.613 679.13 298.698 679.605 298.487 687.635C297.275 688.885 296.342 689.9 294.467 689.95C290.127 690.065 286.454 685.71 283.655 682.88C284.066 685.315 284.629 687.775 284.514 690.25L284.885 690.87L284.949 699.02C282.065 696.415 280.027 693.09 277.873 689.885C279.263 695.025 281.242 702.45 279.714 707.7L278.956 708.23L277.643 707.84C277.093 704.665 270.054 697.545 267.785 694.62C269.215 698.925 270.408 703.325 271.69 707.68C265.974 700.32 262.261 692.15 258.053 683.905L258.172 684.96C255.263 680.1 254.996 675.615 255.055 670.11C258.201 670.19 261.279 671.24 264.305 672.05C254.416 665.51 242.066 665.755 230.58 665.355C228.787 664.8 227.123 664.08 225.702 662.825C220.462 658.2 220.585 650.195 220.021 643.75C234.789 643.335 250.028 642.87 264.692 641.145C257.036 639.41 248.673 639.18 240.832 639.11C233.521 639.04 214.324 641.25 208.445 638.085C204.391 635.905 203.232 632.25 202.029 628.13Z" fill="#F1C082"/>
<path d="M810.525 648.215L817.535 642.155C878.745 687.53 928.405 740.88 967.645 806.305C974.955 818.49 986.85 839.1 990.89 852.345L983.905 855.445C977.88 845.435 972.7 834.935 966.85 824.815C960.31 813.495 952.96 802.675 945.55 791.91C941.95 786.675 938.435 780.725 934.28 775.955C928.66 766.88 921.535 758.405 915.02 749.96C885.23 711.355 851.39 675.25 810.525 648.215Z" fill="#40A442"/>
<path d="M752.615 687.245C762.94 680.17 773.84 673.93 784.215 666.9C793.125 660.86 801.49 654.09 810.525 648.215C851.39 675.25 885.23 711.355 915.02 749.96C921.535 758.405 928.66 766.88 934.28 775.955L933.965 776.31C934.83 779.265 948.225 797.59 950.98 801.745C955.329 808.4 959.594 815.109 963.775 821.87C968.92 830.165 973.28 838.835 977.745 847.505C969.755 842.68 962.15 837.285 953.98 832.755C930.505 819.725 904.28 809.045 878.47 801.65C867.93 798.63 857.15 796.33 846.51 793.67C834.715 774.23 819.745 755.955 804.745 738.935C787.42 719.27 772.9 703.94 752.615 687.245Z" fill="#33712F"/>
<path d="M296.717 656.39L297.978 656.085C300.162 657.59 300.76 660.5 301.169 662.985C301.498 664.975 301.731 667.05 301.067 669L300.822 668.66C299.924 668.675 300.419 668.765 299.398 668.165C299.025 664.01 298.023 660.335 296.717 656.39Z" fill="#0C1B0B"/>
<path d="M291.982 663.035C294.089 664.605 296.846 667.68 299.398 668.165C300.419 668.765 299.924 668.675 300.822 668.66L301.067 669C299.977 670.33 298.45 670.585 296.869 671.06C295.369 668.32 293.631 665.685 291.982 663.035Z" fill="#0A0F0A"/>
<path d="M255.055 670.11L254.527 670.16L254.975 670.95L254.32 670.875C249.651 666.2 235.416 669.395 230.42 666.14L230.58 665.355C242.066 665.755 254.416 665.51 264.305 672.05C261.279 671.24 258.201 670.19 255.055 670.11Z" fill="#0A0F0A"/>
<path d="M283.655 682.88C286.454 685.71 290.127 690.065 294.467 689.95C296.342 689.9 297.275 688.885 298.487 687.635C298.916 689.03 299.006 689.1 298.271 690.425C297.559 691.71 296.732 692.435 295.391 693.035C290.739 693.235 289.433 687.645 284.514 690.25C284.629 687.775 284.066 685.315 283.655 682.88Z" fill="#0A0F0A"/>
<path d="M641.305 824.715C647.265 815.27 661.45 803.67 669.815 795.71C675.325 790.47 680.495 784.845 685.67 779.28C655.14 799.6 625.455 821.44 594.505 841.1C570.955 856.055 545.945 869.51 521.195 882.37C508.93 888.74 496.531 896.445 483.568 901.27C488.017 901.335 494.321 897.63 498.56 896.125C529.643 884.904 559.583 870.738 587.97 853.82C600.52 846.325 612.58 837.895 624.995 830.15C616.72 839.01 608.645 847.885 601.395 857.615C595.875 865.025 591.15 873.055 586.41 880.975C572.715 903.885 561.515 926.74 552.725 951.955C550.63 957.97 545.935 969.36 545.835 975.565C545.825 976.34 545.855 976.63 546.355 977.18C535.49 978.9 522.145 978.705 511.055 979.1C490.449 979.996 469.825 980.428 449.199 980.395C449.565 980.275 450.01 980.12 450.385 980.07C451.499 979.925 452.11 980.09 453.14 979.52C452.805 975.045 453.328 970.355 453.715 965.885C454.484 957.01 455.531 948.2 457.274 939.455C458.681 932.4 460.581 925.445 461.672 918.33C489.282 886.58 523.875 861.44 556.375 835.025L629.995 776.295C647.855 762.095 665.41 747.635 683.785 734.08C703.55 719.495 724.125 705.98 744.445 692.19C777.62 722.65 810.445 754.655 834.7 792.935C824.235 799.235 813.14 804.625 802.59 810.82C769.551 830.578 739.37 854.762 712.885 882.7C707.955 887.915 702.865 893.115 698.435 898.77C690.405 909.015 683.555 920.27 677.31 931.67C671.945 941.47 666.98 951.35 664.155 962.225C655.355 963.935 646.45 965.77 637.535 966.755C639.05 964.63 641.935 955.335 643.095 952.345C645.131 946.989 647.272 941.673 649.515 936.4C650.825 933.33 652.735 929.9 653.585 926.72C653.76 926.06 653.7 925.545 653.645 924.875C654.09 922.165 656.235 918.74 657.425 916.21C660.833 908.853 664.427 901.584 668.205 894.41C671.285 888.685 675.715 882.55 677.72 876.425C678.42 872.54 683.87 867.725 686.38 864.515C701.155 845.585 716.84 827.965 734.35 811.48C744.17 802.235 754.7 793.59 764.815 784.655C706.525 813.965 671.875 858.52 642.335 915.265C636.278 926.876 630.72 938.74 625.675 950.825C623.405 956.14 620.875 961.52 619.055 967C618.745 967.95 618.595 968.84 618.485 969.825C601.715 972.362 584.861 974.317 567.955 975.685C568.155 972.02 569.57 968.035 570.465 964.47C575.859 942.886 583.615 921.961 593.59 902.075C596.2 896.885 606.215 880.94 606.69 876.44C610.37 866.44 641.12 827.06 641.305 824.715Z" fill="#33712F"/>
<path d="M330.629 735.725C333.069 734.46 335.39 732.905 337.728 731.46C337.977 731.56 338.253 731.61 338.476 731.76C339.857 732.69 341.585 735.35 342.725 736.685C349.734 744.895 356.574 752.68 362.449 761.81C371.242 775.465 380.9 790.19 385.746 805.815C391.038 822.875 388.446 840.915 388.731 858.465C389.005 873.104 390.183 887.711 392.258 902.205L391.92 901.92L392.065 902.67L390.976 899.09C386.677 882.985 383.564 866.785 380.963 850.33C379.394 840.4 377.782 830.325 376.953 820.305C376.394 813.545 376.782 806.335 375.592 799.69C375.153 797.245 374.221 795.005 373.094 792.805C369.023 784.855 362.988 778.115 357.239 771.355C347.709 760.155 337.537 748.8 330.629 735.725Z" fill="#40A442"/>
<path d="M403.258 832.81C403.004 827.177 402.564 821.554 401.936 815.95C401.447 811.645 399.574 805.385 400.244 801.215C400.909 797.07 407.705 790.82 410.293 787.29C418.304 776.36 424.186 764.02 431.883 752.87C438.07 759.41 446.896 763.37 453.151 770.095C445.796 780.51 436.3 788.005 427.54 797.04C420.505 804.295 414.717 812.355 409.228 820.805C407.009 824.755 404.941 828.59 403.258 832.81Z" fill="#093209"/>
<path d="M685.67 779.28C680.495 784.845 675.325 790.47 669.815 795.71C661.45 803.67 647.265 815.27 641.305 824.715C627.78 840.055 614.87 855.515 603.265 872.4C582.17 903.1 564.18 940.35 551.77 975.51C556.81 975.535 561.625 975.295 566.63 974.75C568.975 965.645 571.13 956.41 573.975 947.45C581.2 924.66 593.51 896.33 606.69 876.44C606.215 880.94 596.2 896.885 593.59 902.075C583.614 921.962 575.859 942.886 570.465 964.47C569.57 968.035 568.155 972.02 567.955 975.685C560.765 976.45 553.57 976.815 546.355 977.18C545.855 976.63 545.825 976.34 545.835 975.565C545.935 969.36 550.63 957.97 552.725 951.955C561.515 926.74 572.715 903.885 586.41 880.975C591.15 873.055 595.875 865.025 601.395 857.615C608.645 847.885 616.72 839.01 624.995 830.15C612.58 837.895 600.52 846.325 587.97 853.82C559.582 870.739 529.643 884.905 498.559 896.125C494.32 897.63 488.017 901.335 483.567 901.27C496.53 896.445 508.93 888.74 521.195 882.37C545.945 869.51 570.955 856.055 594.505 841.1C625.455 821.44 655.14 799.6 685.67 779.28Z" fill="#0A260A"/>
<path d="M677.72 876.425C671.925 883.5 667.03 891.675 662.265 899.475C657.25 907.685 652.03 915.885 647.525 924.39C640.005 938.59 633.62 953.3 626.445 967.655C629.795 967.035 633.27 966.555 636.55 965.665C641.37 953.505 647.245 935.925 653.645 924.875C653.7 925.545 653.76 926.06 653.585 926.72C652.735 929.9 650.825 933.33 649.515 936.4C647.271 941.673 645.131 946.989 643.095 952.345C641.935 955.335 639.05 964.63 637.535 966.755C631.199 967.864 624.848 968.888 618.485 969.825C618.595 968.84 618.745 967.95 619.055 967C620.875 961.52 623.405 956.14 625.675 950.825C630.72 938.74 636.278 926.876 642.335 915.265C671.875 858.52 706.525 813.965 764.815 784.655C754.7 793.59 744.17 802.235 734.35 811.48C716.84 827.965 701.155 845.585 686.38 864.515C683.87 867.725 678.42 872.54 677.72 876.425Z" fill="#0A260A"/>
<path d="M719.885 889.085C721.54 886.64 724.085 884.77 726.095 882.6C749.76 857.095 808.19 812.2 841.51 801.505C854.245 819.91 866.09 841.935 874.47 862.745C878.875 873.685 882.34 885.035 886.975 895.865C871.29 901.545 855.71 907.58 839.965 913.065C798.623 927.418 756.744 940.174 714.42 951.305C702.385 954.4 690.145 956.075 678.105 958.935L677.115 958.415C678.18 957.8 680.615 957.73 681.9 957.545C684.215 951.14 687.87 944.965 691.03 938.935C696.255 928.955 701.415 918.87 707.415 909.325C709.63 905.805 719.64 892.295 719.885 889.085Z" fill="#33712F"/>
<path d="M911.845 821.86C914.495 824.995 921.96 828.28 925.87 830.665C932.345 834.615 965.47 855.615 967.65 861.5L967.075 863.305C943.775 875.9 917.615 883.08 893.25 893.3C890.67 889.805 889.425 882.165 888.07 877.84C879.845 851.55 866.475 828.145 853.115 804.24C870.6 806.81 887.605 812.505 904.06 818.81C906.51 819.745 909.695 820.41 911.845 821.86Z" fill="#33712F"/>
<path d="M260.454 970.455C258.607 970.275 256.757 970.06 254.904 969.935C258.635 957.29 264.822 944.915 270.955 933.28C291.475 894.345 312.346 867.71 343.192 836.45C349.624 829.935 356.036 823.015 363.075 817.165C360.237 830.825 356.689 844.38 354.072 858.075C348.059 889.234 345.43 920.951 346.23 952.675C346.498 961.16 346.42 970.025 347.564 978.425C344.366 977.925 341.021 977.805 337.791 977.47C336.599 965.535 337.626 952.705 338.091 940.74C338.82 921.97 340.153 903.47 341.946 884.785C343.106 872.705 344.182 860.695 346.451 848.765C326.869 874.455 311.225 904.735 299.47 934.715C296.215 943.02 293.413 951.68 291.091 960.29C290.25 963.41 289.363 970.96 287.323 973.165L285.163 973.12C280.921 972.33 276.427 972.25 272.121 971.93C279.947 946.605 291.859 921.355 301.799 896.725C294.379 905.665 276.69 941.46 271.456 952.97C268.902 958.585 266.956 964.44 264.185 969.96C262.901 970.7 261.917 970.475 260.454 970.455Z" fill="#40A442"/>
<path d="M967.65 861.5C965.47 855.615 932.345 834.615 925.87 830.665C921.96 828.28 914.495 824.995 911.845 821.86C936.295 830.815 958.905 843.225 981.58 855.845C977.43 857.695 972.115 860.855 967.65 861.5Z" fill="#40A442"/>
<path d="M394.302 932.53C390.818 928.67 387.731 924.23 385.146 919.725C372.347 897.395 366.875 865.945 366.925 840.445C366.936 835.215 366.831 829.42 368.195 824.365C369.701 832.77 370.181 841.495 371.24 849.98C373.913 871.405 377.886 893.83 385.87 913.955C387.674 918.5 393.95 928.765 394.302 932.53Z" fill="#40A442"/>
<path d="M641.305 824.715C641.12 827.06 610.37 866.44 606.69 876.44C593.51 896.33 581.2 924.66 573.975 947.45C571.13 956.41 568.975 965.645 566.63 974.75C561.625 975.295 556.81 975.535 551.77 975.51C564.18 940.35 582.17 903.1 603.265 872.4C614.87 855.515 627.78 840.055 641.305 824.715Z" fill="#40A442"/>
<path d="M285.164 973.12L287.324 973.165C289.364 970.96 290.25 963.41 291.091 960.29C293.414 951.68 296.215 943.02 299.471 934.715C311.226 904.735 326.869 874.455 346.451 848.765C344.183 860.695 343.106 872.705 341.947 884.785C340.154 903.47 338.821 921.97 338.092 940.74C337.627 952.705 336.6 965.535 337.791 977.47C341.022 977.805 344.367 977.925 347.564 978.425L347.026 979.475C325.704 977.53 304.309 976.86 283.012 974.275L285.164 973.12Z" fill="#093209"/>
<path d="M626.445 967.655C633.62 953.3 640.005 938.59 647.525 924.39C652.03 915.885 657.25 907.685 662.265 899.475C667.03 891.675 671.925 883.5 677.72 876.425C675.715 882.55 671.285 888.685 668.205 894.41C664.427 901.584 660.832 908.853 657.425 916.21C656.235 918.74 654.09 922.165 653.645 924.875C647.245 935.925 641.37 953.505 636.55 965.665C633.27 966.555 629.795 967.035 626.445 967.655Z" fill="#40A442"/>
<path d="M719.885 889.085C719.64 892.295 709.63 905.805 707.415 909.325C701.415 918.87 696.255 928.955 691.03 938.935C687.87 944.965 684.215 951.14 681.9 957.545C680.615 957.73 678.18 957.8 677.115 958.415L674.06 958.385L673.745 957.9C674.835 953.93 678.24 949.485 680.33 945.895C692.18 925.54 704.775 907.185 719.885 889.085Z" fill="#40A442"/>
<path d="M260.455 970.455C261.917 970.475 262.901 970.7 264.186 969.96C266.957 964.44 268.902 958.585 271.457 952.97C276.69 941.46 294.379 905.665 301.799 896.725C291.859 921.355 279.948 946.605 272.122 971.93C276.428 972.25 280.921 972.33 285.164 973.12L283.012 974.275C276.487 973.465 268.436 974.03 262.181 972.13L260.455 970.455Z" fill="url(#paint3_linear_3010_11)"/>
<path d="M430.643 947.5C419.122 951.01 403.658 953.325 392.179 948.495C380.899 943.733 371.963 934.698 367.326 923.365C370.189 925.175 372.515 929.3 375.162 931.685C386.954 942.325 398.47 949.195 414.752 948.575C420.198 948.365 425.551 947.445 430.972 947.165L430.643 947.5Z" fill="#69E369"/>
<path d="M379.429 979.17C374.665 969.975 369.127 959.99 366.524 949.925C369.358 952.7 371.401 956.88 373.887 960.05C379.587 967.31 386.505 973.45 393.781 979.075C389.07 979.445 384.164 979.17 379.429 979.17Z" fill="#40A442"/>
</g>
<defs>
<linearGradient id="paint0_linear_3010_11" x1="295.855" y1="408.347" x2="301.891" y2="415.443" gradientUnits="userSpaceOnUse">
<stop stop-color="#FFD19C"/>
<stop offset="1" stop-color="#FCE7B5"/>
</linearGradient>
<linearGradient id="paint1_linear_3010_11" x1="225.425" y1="445.384" x2="226.038" y2="468.696" gradientUnits="userSpaceOnUse">
<stop/>
<stop offset="1" stop-color="#0F1708"/>
</linearGradient>
<linearGradient id="paint2_linear_3010_11" x1="387.191" y1="585.42" x2="391.466" y2="592.81" gradientUnits="userSpaceOnUse">
<stop stop-color="#040002"/>
<stop offset="1" stop-color="#041F09"/>
</linearGradient>
<linearGradient id="paint3_linear_3010_11" x1="302.066" y1="934.905" x2="258.093" y2="948.265" gradientUnits="userSpaceOnUse">
<stop stop-color="#001903"/>
<stop offset="1" stop-color="#072B0A"/>
</linearGradient>
<clipPath id="clip0_3010_11">
<rect width="1024" height="1024" fill="white"/>
</clipPath>
</defs>
</svg>
